<svg xmlns="http://www.w3.org/2000/svg" xmlns:xlink="http://www.w3.org/1999/xlink" width="22" height="21" viewBox="0 0 22 21"><defs><path id="f8vqa" d="M1239.281 663.54c0 .451-.385.82-.86.82h-4.898v-6.686h2.655l.44-2.543h-3.095v-1.764c0-.696.56-1.23 1.29-1.23h1.761v-2.543h-1.761c-2.189 0-3.953 1.692-3.953 3.78v1.757h-2.579v2.543h2.58v6.685h-9.283c-.474 0-.86-.368-.86-.82v-16.078c0-.452.386-.82.86-.82h16.844c.474 0 .86.368.86.82zm-.86-18.54h-16.843c-1.421 0-2.578 1.104-2.578 2.46v16.08c0 1.356 1.157 2.46 2.578 2.46h16.844c1.421 0 2.578-1.104 2.578-2.46v-16.08c0-1.356-1.157-2.46-2.578-2.46z"/></defs><g><g transform="translate(-1219 -645)"><g><use fill="#020202" xlink:href="#f8vqa"/></g></g></g></svg>