<svg width="56" height="62" viewBox="0 0 56 62" fill="none" xmlns="http://www.w3.org/2000/svg">
<path fill-rule="evenodd" clip-rule="evenodd" d="M29.9919 29.7215L34.6035 31.5058C35.0699 31.6865 35.3023 32.2121 35.1222 32.6802C34.9836 33.0407 34.6407 33.2618 34.2773 33.2618C34.1689 33.2618 34.0588 33.2422 33.9516 33.2007L29.6876 31.5508L25.9929 37.11C25.5449 37.784 24.8272 38.2164 24.0243 38.296C23.935 38.3048 23.8456 38.3092 23.7569 38.3092C23.2631 38.3092 22.7851 38.1706 22.3682 37.916L23.1617 56.1986C23.1834 56.6997 22.796 57.1237 22.2965 57.1455C22.2831 57.1461 22.2697 57.1463 22.2564 57.1463C21.7745 57.1463 21.3737 56.7652 21.3526 56.2776L20.6168 39.3258H18.5595L17.8237 56.2776C17.8026 56.7653 17.4018 57.1463 16.9199 57.1463C16.9066 57.1463 16.8932 57.1461 16.8798 57.1455C16.3802 57.1237 15.9929 56.6997 16.0147 56.1986L16.8081 37.916C16.3912 38.1706 15.9131 38.3092 15.4193 38.3092C15.3304 38.3092 15.2412 38.3048 15.1518 38.296C14.3482 38.2162 13.6304 37.7839 13.1825 37.1099L9.48789 31.5507L4.64826 33.4233C3.9533 33.6923 3.35636 34.1238 2.89136 34.6633L6.20973 37.9921C7.389 39.1749 8.03834 40.7477 8.03834 42.4205V56.2382C8.03834 56.7398 7.63297 57.1464 7.13296 57.1464C6.63296 57.1464 6.22759 56.7398 6.22759 56.2382V42.4205C6.22759 41.2329 5.76658 40.1163 4.92941 39.2765L1.98853 36.3264C1.85658 36.7799 1.7949 37.2593 1.81445 37.7498L2.55118 56.2016C2.5711 56.7029 2.1824 57.1254 1.68275 57.1455C1.67044 57.1459 1.65813 57.1462 1.64581 57.1462C1.16247 57.1462 0.761326 56.7632 0.74177 56.2743L0.00503989 37.8222C-0.101915 35.1424 1.50204 32.6935 3.99652 31.7284L9.18357 29.7214L11.8304 27.0663C12.0025 26.8936 12.2278 26.8049 12.4549 26.8009V24.6312C11.2022 23.2961 10.3121 21.6013 9.9599 19.6906L9.95748 19.6879C9.72715 19.7016 9.49405 19.6846 9.26421 19.6374C8.01987 19.3819 7.11691 18.2233 7.11691 16.8824V16.1974C7.11691 15.0765 7.74475 14.0992 8.67825 13.6614C8.40109 12.5382 8.00647 10.5118 8.00647 8.07525C8.00647 3.67495 11.1435 2.87973 12.2435 2.73635C13.0251 2.08669 15.5725 0.244003 19.5387 0.0289403C23.7973 -0.201501 27.146 0.947678 29.223 3.35369C31.3775 5.84931 32.0629 9.58457 31.2139 14.1705C31.7364 14.6807 32.0584 15.4011 32.0584 16.1871V16.8825C32.0584 18.2234 31.1553 19.382 29.9112 19.6375C29.6812 19.6847 29.4484 19.7017 29.2179 19.688C29.217 19.6887 29.2162 19.6897 29.2154 19.6906C28.8632 21.6014 27.9732 23.2962 26.7205 24.6313V26.8011C26.9475 26.8051 27.1728 26.8937 27.3449 27.0664L29.9919 29.7215ZM9.86103 17.874C10.7496 17.8091 11.5748 18.4571 11.7385 19.3504C12.4342 23.1501 15.7352 25.9079 19.5876 25.9079C23.4399 25.9079 26.7409 23.1501 27.4367 19.3504C27.6001 18.457 28.4258 17.8088 29.3141 17.8739C29.3905 17.8795 29.4689 17.8742 29.548 17.8579C29.9466 17.7761 30.2474 17.3567 30.2474 16.8824V16.187C30.2474 15.7319 29.9418 15.3278 29.5364 15.2469C29.401 15.2199 29.0906 15.2321 28.8054 15.2996C28.0778 15.4715 27.3402 15.0922 27.0518 14.3976L26.3466 12.6986C23.9085 13.1924 16.4137 14.2462 12.6502 9.54594C12.3369 9.1548 12.3992 8.58324 12.789 8.26912C13.1789 7.95489 13.7488 8.01737 14.0618 8.40838C17.7722 13.0418 26.5718 10.7896 26.6601 10.7663C27.0971 10.6513 27.5521 10.8771 27.7258 11.2956L28.6331 13.4815C28.9331 13.4287 29.2348 13.4088 29.5069 13.4215C30.1395 9.59365 29.573 6.53397 27.854 4.54259C26.1571 2.57687 23.3156 1.64276 19.6364 1.84268C15.6147 2.06065 13.2668 4.24809 13.2436 4.27025C13.0755 4.42985 12.8502 4.52128 12.6187 4.52128C12.6187 4.52128 12.6185 4.52128 12.6181 4.5213C12.5946 4.52206 11.8662 4.54564 11.1757 4.98385C10.2742 5.55578 9.81721 6.59597 9.81721 8.07513C9.81721 10.5601 10.2672 12.5946 10.5098 13.5107C10.9009 13.6181 11.265 13.8129 11.573 14.0851C11.9597 13.7537 12.2967 13.3618 12.5785 12.9159C12.8461 12.4923 13.4053 12.3662 13.8279 12.6349C14.2501 12.9034 14.3756 13.4645 14.1079 13.8882C13.6139 14.6705 12.9901 15.3314 12.2542 15.8525C11.9354 16.0783 11.5206 16.1451 11.1448 16.0314C10.8876 15.9534 10.6628 15.7957 10.4942 15.5752C10.2911 15.3096 9.97088 15.1864 9.63638 15.2452C9.23898 15.3152 8.92765 15.7335 8.92765 16.1975V16.8825C8.92765 17.3567 9.22836 17.7762 9.6272 17.8581C9.70603 17.8742 9.78474 17.8795 9.86103 17.874ZM15.3297 36.4886C15.5912 36.5147 15.8479 36.4226 16.034 36.2361L18.2631 33.9998L12.5117 28.9517L10.9665 30.5017L14.6887 36.1025C14.8345 36.3219 15.0681 36.4626 15.3297 36.4886ZM18.6974 36.1329L18.6377 37.5095H20.5374L20.4776 36.1329L19.5875 35.24L18.6974 36.1329ZM14.2654 28.0774L19.5875 32.7488L24.9095 28.0774V26.1463C23.3678 27.1485 21.5355 27.7244 19.5875 27.7244C17.6395 27.7244 15.8071 27.1485 14.2654 26.1463V28.0774ZM23.8454 36.4886C24.107 36.4626 24.3406 36.3219 24.4865 36.1024L28.2087 30.5017L26.6635 28.9517L20.9122 33.9998L23.1414 36.2361C23.3958 36.4912 23.6916 36.5042 23.8454 36.4886ZM52.1916 38.8283C54.2916 38.8283 56 40.542 56 42.6486L56.0001 45.3448C56.0001 46.3389 55.6664 47.2935 55.0324 48.1764V58.2785C55.0324 60.3305 53.3681 62.0001 51.3225 62.0001H29.8366C27.7909 62.0001 26.1266 60.3305 26.1266 58.2785V48.1764C25.4926 47.2936 25.1589 46.339 25.1589 45.3449V42.6486C25.1589 40.542 26.8673 38.8283 28.9673 38.8283H34.8357V36.8244C34.8357 35.2532 36.1099 33.9749 37.6764 33.9749H43.4826C45.0489 33.9749 46.3232 35.2531 46.3232 36.8244V38.8283H52.1916ZM37.6764 35.7911C37.1085 35.7911 36.6464 36.2546 36.6463 36.8243V38.8282H44.5124V36.8243C44.5124 36.2547 44.0504 35.7911 43.4824 35.7911H37.6764ZM50.1938 49.6049C52.7186 48.45 54.1891 46.904 54.1891 45.3451V42.6487C54.1891 41.5437 53.293 40.6448 52.1915 40.6448H28.9672C27.8656 40.6448 26.9696 41.5437 26.9696 42.6487V45.3451C26.9696 46.9039 28.4401 48.45 30.9649 49.6049V49.4436C30.9649 48.942 31.3703 48.5354 31.8703 48.5354H35.7409C36.2409 48.5354 36.6463 48.942 36.6463 49.4436V51.1772C37.918 51.3558 39.2371 51.4475 40.5793 51.4475C40.8911 51.4475 41.2069 51.4425 41.5183 51.4326C42.0217 51.4153 42.4361 51.8101 42.4519 52.3115C42.4678 52.8128 42.0755 53.2321 41.5757 53.248C41.2454 53.2585 40.9102 53.2639 40.5795 53.2639C39.2154 53.2639 37.8723 53.1743 36.5723 53C36.2803 54.2618 35.1511 55.2052 33.8057 55.2052C32.2394 55.2052 30.965 53.927 30.965 52.3557V51.579C29.7894 51.1071 28.7746 50.558 27.9373 49.9481V58.2785C27.9373 59.329 28.7894 60.1836 29.8366 60.1836H51.3223C52.3697 60.1836 53.2216 59.3291 53.2215 58.2786V49.9482C52.3842 50.5582 51.3693 51.1072 50.1938 51.579V52.3557C50.1938 53.9269 48.9194 55.2052 47.3531 55.2052C45.7868 55.2052 44.5124 53.927 44.5124 52.3557V49.4436C44.5124 48.942 44.9178 48.5354 45.4178 48.5354H49.2884C49.7884 48.5354 50.1938 48.942 50.1938 49.4436V49.6049ZM48.3833 52.3555V50.3517H46.3234V52.3555C46.3234 52.9252 46.7855 53.3887 47.3533 53.3887C47.9212 53.3887 48.3833 52.9253 48.3833 52.3555ZM32.7756 50.3517V52.3555C32.7756 52.9253 33.2377 53.3887 33.8056 53.3887C34.3734 53.3887 34.8355 52.9253 34.8355 52.3555V50.3517H32.7756Z" fill="url(#paint0_linear)"/>
<defs>
<linearGradient id="paint0_linear" x1="28" y1="-0.149377" x2="28" y2="61.8164" gradientUnits="userSpaceOnUse">
<stop stop-color="#C83F21"/>
<stop offset="1" stop-color="#F0AB52"/>
</linearGradient>
</defs>
</svg>
