<svg width="56" height="52" viewBox="0 0 56 52" fill="none" xmlns="http://www.w3.org/2000/svg">
<path d="M55.4041 32.8656C54.3389 31.2791 52.1939 30.8591 50.6237 31.9287L43.4771 36.7762L43.4563 21.6876L45.9391 24.045C46.4671 24.5461 47.1555 24.8219 47.8783 24.8219C47.8796 24.8219 47.8811 24.8219 47.8825 24.8219C48.6628 24.8208 49.4162 24.4894 49.9495 23.9124C50.4676 23.3518 50.7394 22.6203 50.7147 21.8526C50.69 21.0848 50.3717 20.3727 49.8186 19.8476L45.1116 15.3786C44.7894 15.0726 44.2835 15.0894 43.9818 15.4159C43.68 15.7425 43.6965 16.2551 44.0186 16.5611L48.7256 21.0301C48.9671 21.2594 49.106 21.5702 49.1168 21.9053C49.1275 22.2404 49.009 22.5598 48.7827 22.8045C48.5464 23.0601 48.226 23.2011 47.8801 23.2016C47.8795 23.2016 47.8789 23.2016 47.8783 23.2016C47.5629 23.2016 47.2625 23.0812 47.032 22.8623C47.0319 22.8622 47.0319 22.8622 47.0319 22.8622L28.3417 5.11655C28.0337 4.82422 27.5544 4.82467 27.2472 5.1181L8.60552 22.9169C8.36478 23.1468 8.05 23.2672 7.71925 23.2579C7.3885 23.2479 7.08148 23.1079 6.85464 22.8637C6.6278 22.6197 6.50825 22.3006 6.5182 21.9655C6.52805 21.6303 6.66619 21.3191 6.90692 21.0892L26.9419 1.96015C27.4168 1.50664 28.1619 1.50553 28.638 1.95783L40.3594 13.0869C40.6815 13.3927 41.1873 13.3761 41.4892 13.0495C41.791 12.7229 41.7745 12.2103 41.4524 11.9044L29.7311 0.775328C28.6403 -0.260508 26.9337 -0.25818 25.8458 0.78076L19.4321 6.90443L19.4304 5.81217C19.4299 5.46785 19.2971 5.14438 19.0566 4.90138C18.8165 4.65872 18.4978 4.52513 18.1588 4.52513C18.1581 4.52513 18.1576 4.52513 18.1569 4.52513L13.569 4.53168C13.2292 4.53212 12.9102 4.6667 12.6703 4.91047C12.4306 5.15424 12.2987 5.47805 12.2992 5.82248L12.3119 13.7029L5.81077 19.91C5.25908 20.4367 4.94287 21.1496 4.92023 21.9174C4.89759 22.6852 5.17136 23.416 5.691 23.9749C6.21053 24.534 6.91392 24.8546 7.67156 24.8776C7.70055 24.8785 7.72953 24.8789 7.75852 24.8789C8.48422 24.8789 9.17142 24.6029 9.70178 24.0963L12.179 21.7311L12.1889 28.8581C11.3874 28.7398 10.5765 28.6777 9.76183 28.6777H8.39409V28.192C8.39409 26.5612 7.08498 25.2343 5.47597 25.2343H2.91813C1.30911 25.2342 0 26.5609 0 28.1918V40.8868C0 41.3342 0.357875 41.697 0.799313 41.697C1.24075 41.697 1.59863 41.3342 1.59863 40.8868V28.1918C1.59863 27.4544 2.19056 26.8545 2.91813 26.8545H5.47586C6.20342 26.8545 6.79536 27.4544 6.79536 28.1918V29.4877V46.0935V47.3767C6.79536 48.1141 6.20342 48.714 5.47586 48.714H2.91813C2.19056 48.714 1.59863 48.1141 1.59863 47.3767V45.959C1.59863 45.5116 1.24075 45.1489 0.799313 45.1489C0.357875 45.1489 0 45.5116 0 45.959V47.3767C0 49.0075 1.30911 50.3343 2.91813 50.3343H5.47586C7.08488 50.3343 8.39398 49.0076 8.39398 47.3767V47.2666L20.0997 51.7593C20.1214 51.7676 20.1434 51.775 20.1657 51.7813C20.6746 51.9269 21.1833 52 21.6856 52C21.9573 52 22.2271 51.9786 22.4942 51.9358L39.6968 49.4225C39.7008 49.4219 39.7048 49.4213 39.7088 49.4206C41.1714 49.1839 42.5511 48.5573 43.6988 47.6086C43.7088 47.6004 43.7186 47.5918 43.7281 47.5831L54.8418 37.4522C56.1361 36.2876 56.3777 34.3158 55.4041 32.8656ZM17.8322 6.14596L17.8359 8.42848L13.908 12.1787L13.8983 6.15139L17.8322 6.14596ZM27.7967 6.81929L41.8555 20.1677L41.8799 37.8595L39.6168 39.3946L37.2203 39.2584L37.157 38.6132C36.934 36.3409 35.2789 34.5129 33.0904 34.0767L33.076 23.5515C33.0749 22.7438 32.4261 22.0875 31.6293 22.0875C31.6286 22.0875 31.6281 22.0875 31.6273 22.0875L24.0089 22.0983C23.6225 22.0989 23.2594 22.2519 22.9866 22.5292C22.7137 22.8065 22.5637 23.175 22.5643 23.5665L22.577 32.7432C21.0679 32.3936 19.627 31.8162 18.2798 31.0174C18.1117 30.9178 17.942 30.8216 17.7708 30.728C17.7041 30.6915 17.6363 30.6573 17.569 30.6217C17.4649 30.5666 17.361 30.5112 17.2558 30.4583C17.172 30.4162 17.0872 30.3763 17.0028 30.3356C16.9132 30.2924 16.8237 30.2489 16.7335 30.2073C16.6416 30.1651 16.549 30.1248 16.4565 30.0843C16.3719 30.0472 16.2874 30.01 16.2023 29.9744C16.1071 29.9346 16.0114 29.8964 15.9156 29.8583C15.8306 29.8246 15.7455 29.7912 15.6601 29.7588C15.5653 29.7229 15.47 29.6882 15.3745 29.6541C15.2849 29.6221 15.1953 29.5908 15.1051 29.5604C15.0137 29.5294 14.922 29.4992 14.8299 29.4698C14.7318 29.4384 14.6333 29.4085 14.5346 29.3789C14.4499 29.3536 14.3652 29.3283 14.28 29.3044C14.1688 29.273 14.057 29.2436 13.9451 29.2146C13.8927 29.201 13.8406 29.1856 13.7879 29.1724L13.7756 20.2066L27.7967 6.81929ZM31.4916 33.874L24.806 33.0939L24.1761 33.0204L24.1632 23.7184L31.4776 23.7079L31.4916 33.874ZM53.7767 36.2442L42.674 46.3651C41.7488 47.1255 40.6389 47.6284 39.4626 47.8197L22.2674 50.332C22.2638 50.3325 22.2603 50.3331 22.2567 50.3336L22.2448 50.3355C21.7238 50.4191 21.1813 50.3838 20.6322 50.2311L8.39409 45.5339V30.2979H9.76183C10.9261 30.2979 12.0825 30.4341 13.2087 30.6987C13.2506 30.7086 13.2923 30.7187 13.3341 30.7289C13.4725 30.7627 13.6105 30.7975 13.7479 30.8352C13.7599 30.8385 13.7718 30.8421 13.7839 30.8454C13.9216 30.8835 14.0587 30.9238 14.1955 30.9658C14.22 30.9733 14.2446 30.9808 14.269 30.9884C14.4144 31.034 14.5592 31.0815 14.7033 31.1314C14.7182 31.1366 14.7329 31.1419 14.7478 31.1471C15.0478 31.2521 15.3449 31.3666 15.6382 31.4906C15.6542 31.4973 15.6702 31.5041 15.6861 31.511C15.8324 31.5733 15.9777 31.6377 16.1221 31.7046C16.1259 31.7064 16.1299 31.7083 16.1337 31.7102C16.2732 31.7751 16.4118 31.8425 16.5495 31.9118C16.5657 31.9199 16.582 31.9279 16.5982 31.9361C16.7327 32.0043 16.8662 32.0749 16.9988 32.1472C17.0239 32.1608 17.0488 32.1748 17.0739 32.1885C17.2078 32.2625 17.3409 32.3378 17.4727 32.416C19.3748 33.5437 21.4455 34.2742 23.6273 34.5871C23.6342 34.5881 23.641 34.589 23.6479 34.5898L32.6036 35.6348C32.6531 35.642 32.7024 35.6503 32.7513 35.6596C34.0697 35.9106 35.1103 36.898 35.4584 38.1838C35.51 38.3743 35.5463 38.5714 35.5662 38.7735L35.6018 39.136L18.8171 37.6455C18.3776 37.6066 17.9896 37.9362 17.9511 38.3818C17.9125 38.8276 18.2378 39.2205 18.6775 39.2596L36.4227 40.8354C36.427 40.8357 36.4312 40.8356 36.4353 40.8359C36.4395 40.8363 36.4435 40.8369 36.4478 40.8373L39.7943 41.0276C39.8093 41.0285 39.8242 41.0288 39.8391 41.0288C39.8549 41.0288 39.8706 41.0263 39.8863 41.0253C39.9042 41.0242 39.922 41.0235 39.9397 41.0213C39.9635 41.0182 39.9868 41.013 40.0103 41.0078C40.027 41.004 40.0438 41.0012 40.0602 40.9963C40.0858 40.9889 40.1104 40.9788 40.1353 40.9687C40.1486 40.9633 40.1624 40.9592 40.1755 40.953C40.2128 40.9355 40.2491 40.9153 40.2837 40.8918L43.1244 38.965C43.1245 38.9649 43.1246 38.9648 43.1247 38.9647L51.514 33.2742C52.358 32.6992 53.5102 32.9248 54.0823 33.7771C54.6054 34.556 54.4755 35.6152 53.7767 36.2442Z" fill="url(#paint0_linear)"/>
<defs>
<linearGradient id="paint0_linear" x1="28" y1="-0.125284" x2="28" y2="51.846" gradientUnits="userSpaceOnUse">
<stop stop-color="#C83F21"/>
<stop offset="1" stop-color="#F0AB52"/>
</linearGradient>
</defs>
</svg>
