<svg width="56" height="56" viewBox="0 0 56 56" fill="none" xmlns="http://www.w3.org/2000/svg">
<path fill-rule="evenodd" clip-rule="evenodd" d="M55.6432 14.3793L36.2384 0.166447C36.0529 0.0306318 35.8217 -0.025636 35.5948 0.0108829C35.3684 0.0471812 35.1654 0.172625 35.0306 0.359743L26.5681 12.1162L25.4029 4.70991C25.367 4.48142 25.2426 4.27676 25.057 4.14072C24.8713 4.00469 24.6397 3.94897 24.4134 3.98516L0.72929 7.7764C0.257664 7.85186 -0.0640086 8.29881 0.010804 8.77443L4.63639 38.1786C4.67237 38.4071 4.79673 38.6117 4.98223 38.7478C5.13088 38.8567 5.30883 38.9141 5.49028 38.9141C5.53534 38.9141 5.58063 38.9105 5.6258 38.9033L11.068 38.0322V47.3909C11.068 47.8726 11.4552 48.2632 11.9327 48.2632H35.9133C36.391 48.2632 36.778 47.8726 36.778 47.3909V44.9314C37.3713 44.5877 37.9316 44.191 38.4519 43.7421L40.6065 45.9156L39.9136 46.6146C39.576 46.9551 39.576 47.5075 39.9136 47.8481L47.7398 55.7426C47.9087 55.913 48.13 55.9982 48.3514 55.9982C48.5726 55.9982 48.794 55.913 48.9629 55.7426L51.5717 53.1111C51.7338 52.9476 51.8249 52.7257 51.8249 52.4943C51.8249 52.263 51.7338 52.0411 51.5717 51.8776L43.7453 43.9831C43.5831 43.8195 43.3632 43.7276 43.1338 43.7276C42.9045 43.7276 42.6846 43.8195 42.5223 43.9831L41.8294 44.682L39.6748 42.5087C41.3812 40.4993 42.312 37.9701 42.312 35.296C42.312 35.0099 42.3002 34.7202 42.278 34.431L55.8349 15.5974C56.1156 15.2076 56.0297 14.6621 55.6432 14.3793ZM43.1337 45.8335L49.7371 52.4945L48.3512 53.8925L41.7479 47.2315L43.1337 45.8335ZM11.0681 17.6189V21.1936L8.50772 21.6035C8.0361 21.679 7.71443 22.1259 7.78924 22.6016C7.85683 23.0312 8.22433 23.3373 8.64215 23.3373C8.68721 23.3373 8.73293 23.3338 8.77876 23.3264L11.0681 22.96V28.7299L9.66404 28.9545C9.19241 29.03 8.87074 29.4769 8.94555 29.9527C9.01315 30.3822 9.38065 30.6883 9.79846 30.6883C9.84352 30.6883 9.88924 30.6848 9.93507 30.6774L11.0681 30.4961V36.266L6.20877 37.0438L1.85432 9.3626L23.8306 5.84487L25.1312 14.1124L23.235 16.7466H11.9327C11.4552 16.7467 11.0681 17.1372 11.0681 17.6189ZM35.0487 46.5188H12.7974V37.0107V29.4746V21.9386V18.4913H23.6742L23.6749 18.4914L23.6758 18.4913H26.558H33.4767L33.4773 18.4914L33.4784 18.4913H35.0485V19.4027V24.8506C33.8533 24.4121 32.5983 24.1899 31.3015 24.1899C31.0599 24.1899 30.8194 24.1989 30.5802 24.2145C30.5157 24.1991 30.4485 24.1899 30.3793 24.1899H17.4666C16.9891 24.1899 16.6019 24.5805 16.6019 25.0622C16.6019 25.5439 16.9891 25.9345 17.4666 25.9345H25.3764C24.4422 26.537 23.5926 27.2852 22.8618 28.1646C21.9995 29.2016 21.3441 30.3662 20.9068 31.633H17.4668C16.9892 31.633 16.602 32.0235 16.602 32.5052C16.602 32.9869 16.9892 33.3775 17.4668 33.3775H20.4566C20.3469 34.01 20.2915 34.652 20.2915 35.2964C20.2915 36.6055 20.5114 37.8715 20.9453 39.0761H17.4669C16.9893 39.0761 16.6021 39.4667 16.6021 39.9484C16.6021 40.4301 16.9893 40.8206 17.4669 40.8206H21.7496C23.7128 44.277 27.3245 46.4028 31.3018 46.4028C32.5995 46.4028 33.8546 46.181 35.0488 45.7433V46.5188H35.0487ZM37.8644 41.916L37.864 41.9163C37.1741 42.6123 36.3853 43.1913 35.5198 43.6375C34.2067 44.3146 32.7876 44.658 31.3017 44.658C27.7975 44.658 24.6288 42.7011 23.0323 39.551L23.032 39.5503C22.361 38.226 22.0208 36.7947 22.0208 35.2961C22.0208 34.4317 22.1388 33.5724 22.3718 32.7425C22.7298 31.4668 23.3406 30.3035 24.1872 29.2852C25.9574 27.1556 28.5506 25.9342 31.3018 25.9342C32.786 25.9342 34.2052 26.278 35.5198 26.9562C38.3191 28.4003 40.1915 31.1371 40.5279 34.2774L40.5281 34.2793C40.5643 34.6185 40.5828 34.9605 40.5828 35.2961C40.5827 37.7969 39.6173 40.1477 37.8644 41.916ZM41.8405 32.0698C41.0352 29.3788 39.2393 27.0854 36.778 25.6621V21.1139L41.4785 24.5566C41.632 24.6689 41.8096 24.7231 41.9858 24.7231C42.2531 24.7231 42.517 24.5983 42.6863 24.3633C42.9669 23.9735 42.881 23.428 42.4945 23.1449L36.778 18.958V17.6191C36.778 17.1374 36.391 16.7468 35.9133 16.7468H33.7591L32.0458 15.4919C31.6594 15.2089 31.1185 15.2953 30.838 15.6852C30.6027 16.012 30.6258 16.4476 30.8667 16.7468H26.5579H25.372L26.7407 14.8454L26.741 14.845L35.922 2.09059L53.9274 15.2783L41.8405 32.0698ZM36.3808 9.46921L46.8288 17.122C47.2153 17.405 47.3011 17.9505 47.0205 18.3403C46.8512 18.5753 46.5874 18.7 46.3201 18.7C46.1439 18.7 45.9663 18.6459 45.8129 18.5336L35.3648 10.8808C34.9784 10.5977 34.8925 10.0523 35.1731 9.6625C35.4538 9.27272 35.9945 9.18623 36.3808 9.46921ZM20.1027 12.2107C20.5743 12.1347 21.0173 12.4597 21.0921 12.9355C21.1671 13.4113 20.8455 13.8581 20.3738 13.9336L7.62159 15.9749C7.57577 15.9823 7.53005 15.9859 7.48499 15.9859C7.06721 15.9859 6.69973 15.6797 6.63214 15.2502C6.55733 14.7745 6.87898 14.3276 7.35058 14.2521L20.1027 12.2107ZM23.98 35.2965C23.98 31.2246 27.264 27.9119 31.3005 27.9119C35.3371 27.9119 38.6211 31.2245 38.6211 35.2965C38.6211 39.3684 35.3371 42.6811 31.3005 42.6811C27.264 42.6811 23.98 39.3684 23.98 35.2965ZM25.7093 35.2965C25.7093 38.4065 28.2174 40.9367 31.3005 40.9367C34.3835 40.9367 36.8918 38.4065 36.8918 35.2965C36.8918 32.1865 34.3836 29.6563 31.3005 29.6563C28.2176 29.6563 25.7093 32.1864 25.7093 35.2965ZM33.757 35.1451C33.4194 34.8046 32.8721 34.8046 32.5344 35.1451L30.2292 37.4705C29.8917 37.8109 29.8917 38.3631 30.2292 38.7036C30.398 38.8738 30.6194 38.959 30.8406 38.959C31.0618 38.959 31.2831 38.8739 31.4519 38.7036L33.757 36.3783C34.0947 36.0377 34.0947 35.4855 33.757 35.1451ZM31.6105 31.4235C31.9482 31.083 32.4954 31.083 32.8331 31.4235C33.1707 31.7638 33.1707 32.316 32.8331 32.6566L30.2976 35.2144C30.1288 35.3847 29.9075 35.4699 29.6863 35.4699C29.4651 35.4699 29.2438 35.3846 29.0749 35.2144C28.7374 34.8739 28.7374 34.3218 29.0749 33.9813L31.6105 31.4235Z" fill="url(#paint0_linear)"/>
<defs>
<linearGradient id="paint0_linear" x1="28" y1="0" x2="28" y2="55.9982" gradientUnits="userSpaceOnUse">
<stop stop-color="#C83F21"/>
<stop offset="1" stop-color="#F0AB52"/>
</linearGradient>
</defs>
</svg>
