<svg width="56" height="43" viewBox="0 0 56 43" fill="none" xmlns="http://www.w3.org/2000/svg">
<path d="M54.1397 11.7332L31.8167 0.728265C29.8923 -0.242755 26.6208 -0.242755 24.6964 0.728265L1.86025 11.7332C0.256587 12.51 0 13.6105 0 14.1931C0 14.7757 0.256587 15.8114 1.86025 16.653L3.7205 17.5593V27.9168C2.56587 28.37 1.73196 29.5352 1.73196 30.8299C1.73196 32.1246 2.56586 33.2898 3.65636 33.7429L0.769759 43H8.85223L5.96564 33.7429C7.12028 33.2898 7.89003 32.1246 7.89003 30.8299C7.89003 29.4705 7.05613 28.37 5.90149 27.9168V18.6598L9.30126 20.3429V33.8077C9.30126 34.0019 9.36541 34.1961 9.4937 34.3903C9.81443 34.7787 15.7801 43 27.9679 43C40.1558 43 46.1214 34.714 46.378 34.3903C46.5063 34.1961 46.5704 34.0019 46.5704 33.8077V20.4076L54.1397 16.653C55.7434 15.8762 56 14.7757 56 14.1931C55.9359 13.6105 55.7434 12.51 54.1397 11.7332ZM44.5178 33.484C43.4914 34.7787 37.9748 40.9932 27.9679 40.9932C17.9611 40.9932 12.4444 34.7787 11.4181 33.484V21.2492L24.6964 27.6579C25.6586 28.111 26.9416 28.37 28.2245 28.37C29.5716 28.37 30.8545 28.111 31.8167 27.5931L44.5178 21.3139V33.484ZM53.2417 14.8404L45.5441 18.6598C45.2234 18.6598 44.9668 18.7892 44.8385 19.0482L30.9187 25.8453C29.5716 26.5574 26.9416 26.5574 25.5304 25.8453L8.40321 17.5593L28.0962 15.2288C28.6735 15.1641 29.0584 14.6462 28.9943 14.1283C28.9301 13.5457 28.417 13.1573 27.9038 13.2221L5.06758 15.9409L2.7583 14.8404C2.18099 14.5815 2.05269 14.2578 2.05269 14.2578C2.05269 14.1931 2.18099 13.9341 2.7583 13.6752L25.5945 2.60557C26.3001 2.2819 27.2623 2.08769 28.2245 2.08769C29.2509 2.08769 30.2772 2.2819 30.9187 2.60557L53.2417 13.6105C53.819 13.8694 53.9473 14.1283 53.9473 14.2578C53.9473 14.2578 53.7549 14.5815 53.2417 14.8404Z" fill="url(#paint0_linear)"/>
<defs>
<linearGradient id="paint0_linear" x1="28" y1="-0.1036" x2="28" y2="42.8726" gradientUnits="userSpaceOnUse">
<stop stop-color="#C83F21"/>
<stop offset="1" stop-color="#F0AB52"/>
</linearGradient>
</defs>
</svg>
