<svg width="121" height="120" viewBox="0 0 121 120" fill="none" xmlns="http://www.w3.org/2000/svg">
<path d="M5.9964 119.913H81.9523C85.265 119.913 87.9497 117.229 87.9497 113.918V105.923C87.9497 104.82 87.0548 103.925 85.9506 103.925C84.8463 103.925 83.9514 104.82 83.9514 105.923V113.918C83.9514 115.022 83.0565 115.916 81.9523 115.916H5.9964C4.89219 115.916 3.99729 115.022 3.99729 113.918V5.99552C3.99729 4.89147 4.89219 3.9967 5.9964 3.9967C9.30809 3.9967 11.9928 6.68101 11.9928 9.99315V15.9887C11.9928 18.1958 13.7826 19.9854 15.991 19.9854H83.9514V31.9773C83.9514 33.0804 84.8463 33.9752 85.9506 33.9752C87.0548 33.9752 87.9497 33.0804 87.9497 31.9773V19.9854H95.9442C98.1527 19.9854 99.9425 18.1958 99.9425 15.9887V9.99315C99.9359 4.47664 95.4652 0.00651081 89.9478 0H5.9964C2.6847 0 0 2.68431 0 5.99552V113.918C0 117.229 2.6847 119.913 5.9964 119.913ZM89.9478 3.9967C93.2595 3.9967 95.9442 6.68101 95.9442 9.99315V15.9887H15.991V9.99315C15.9836 7.82319 15.2626 5.71648 13.9398 3.9967H89.9478Z" fill="url(#paint0_linear)"/>
<path d="M35.9772 37.9726C37.0814 37.9726 37.9762 37.0779 37.9762 35.9739V31.9773C37.9762 28.6653 35.2907 25.9811 31.9793 25.9811H15.9902C12.6778 25.9811 9.9933 28.6653 9.9933 31.9773V47.9645C9.9933 51.2756 12.6778 53.9598 15.9902 53.9598H25.9833C27.0874 53.9598 27.9822 53.0651 27.9822 51.962C27.9822 50.858 27.0874 49.9633 25.9833 49.9633H15.9902C14.8861 49.9633 13.9913 49.0685 13.9913 47.9645V31.9773C13.9913 30.8733 14.8861 29.9786 15.9902 29.9786H31.9793C33.0834 29.9786 33.9782 30.8733 33.9782 31.9773V35.9739C33.9782 37.0779 34.8731 37.9726 35.9772 37.9726Z" fill="url(#paint1_linear)"/>
<path d="M11.9923 63.9539H25.9833C27.0874 63.9539 27.9822 63.0592 27.9822 61.9552C27.9822 60.8521 27.0874 59.9574 25.9833 59.9574H11.9923C10.8881 59.9574 9.9933 60.8521 9.9933 61.9552C9.9933 63.0592 10.8881 63.9539 11.9923 63.9539Z" fill="url(#paint2_linear)"/>
<path d="M11.9923 71.9482H25.9833C27.0874 71.9482 27.9822 71.0535 27.9822 69.9495C27.9822 68.8464 27.0874 67.9517 25.9833 67.9517H11.9923C10.8881 67.9517 9.9933 68.8464 9.9933 69.9495C9.9933 71.0535 10.8881 71.9482 11.9923 71.9482Z" fill="url(#paint3_linear)"/>
<path d="M11.9923 79.9425H25.9833C27.0874 79.9425 27.9822 79.0477 27.9822 77.9437C27.9822 76.8397 27.0874 75.945 25.9833 75.945H11.9923C10.8881 75.945 9.9933 76.8397 9.9933 77.9437C9.9933 79.0477 10.8881 79.9425 11.9923 79.9425Z" fill="url(#paint4_linear)"/>
<path d="M11.9923 87.9369H31.9793C33.0834 87.9369 33.9782 87.0422 33.9782 85.9382C33.9782 84.8342 33.0834 83.9394 31.9793 83.9394H11.9923C10.8881 83.9394 9.9933 84.8342 9.9933 85.9382C9.9933 87.0422 10.8881 87.9369 11.9923 87.9369Z" fill="url(#paint5_linear)"/>
<path d="M31.9814 93.9324C31.9814 95.0365 32.8762 95.9312 33.9804 95.9312H41.9753C43.0795 95.9312 43.9743 95.0365 43.9743 93.9324C43.9743 92.8284 43.0795 91.9337 41.9753 91.9337H33.9804C32.8762 91.9337 31.9814 92.8284 31.9814 93.9324Z" fill="url(#paint6_linear)"/>
<path d="M11.9923 95.9312H25.9833C27.0874 95.9312 27.9822 95.0365 27.9822 93.9324C27.9822 92.8284 27.0874 91.9337 25.9833 91.9337H11.9923C10.8881 91.9337 9.9933 92.8284 9.9933 93.9324C9.9933 95.0365 10.8881 95.9312 11.9923 95.9312Z" fill="url(#paint7_linear)"/>
<path d="M11.9924 103.926H75.9555C77.0598 103.926 77.9547 103.03 77.9547 101.927C77.9547 100.823 77.0598 99.928 75.9555 99.928H11.9924C10.8882 99.928 9.9933 100.823 9.9933 101.927C9.9933 103.03 10.8882 103.926 11.9924 103.926Z" fill="url(#paint8_linear)"/>
<path d="M80.5059 45.4113C71.0536 35.9697 55.8198 35.7111 46.0531 44.8262C36.2855 53.9423 35.4957 69.1552 44.2661 79.233C44.6085 79.633 44.9945 80.0487 45.4215 80.498C55.1249 90.1479 70.8025 90.1479 80.5059 80.498C90.161 70.795 90.161 55.1151 80.5059 45.4113ZM77.6817 77.6704C69.5578 85.7568 56.4301 85.7745 48.2839 77.7104C47.9527 77.3588 47.6187 77.0063 47.2987 76.6287C39.866 68.1098 40.6 55.2147 48.9509 47.5924C57.3017 39.971 70.2118 40.4138 78.0212 48.5885C85.8307 56.7642 85.68 69.6798 77.6817 77.6704Z" fill="url(#paint9_linear)"/>
<path d="M95.5452 86.8479L90.2837 81.5872C98.9266 68.9423 97.748 52.0161 87.4352 40.691C87.092 40.3069 86.7282 39.9218 86.3645 39.5581C73.4322 26.6565 52.495 26.6565 39.5626 39.5581C37.4817 41.6239 35.6947 43.9669 34.2518 46.5209C33.4909 47.8324 32.823 49.195 32.2537 50.5995C27.3112 62.9068 30.1904 76.9757 39.571 86.3522L39.8752 86.6656C40.1264 86.9251 40.3747 87.1837 40.6362 87.4134C46.0949 92.3756 53.055 95.3734 60.4114 95.9314C61.2589 96.0068 62.1166 96.0449 62.9696 96.0449C63.8236 96.0449 64.6608 96.0068 65.4925 95.9333C71.1912 95.5092 76.6815 93.6099 81.423 90.4214L86.7236 96.0849C86.5134 97.2931 86.8622 98.5311 87.6715 99.4528L102.885 116.693C104.676 118.713 107.218 119.909 109.917 120H110.221C114.289 119.994 117.93 117.477 119.37 113.672C120.809 109.868 119.747 105.57 116.701 102.874L99.4606 87.6627C98.3889 86.7224 96.9024 86.4126 95.5452 86.8479ZM89.0325 92.6872L84.6175 87.9706C85.2166 87.4451 85.8166 86.9093 86.3664 86.3522C86.8678 85.8527 87.3515 85.3328 87.8315 84.7868L92.3804 89.336L89.0325 92.6872ZM65.1622 91.9338C63.6878 92.0631 62.205 92.0631 60.7305 91.9338C54.2476 91.4492 48.1126 88.8114 43.3013 84.4389C43.1013 84.2631 42.9274 84.0753 42.745 83.8902L42.385 83.52C34.1402 75.2773 31.6071 62.9124 35.9468 52.0923C36.4528 50.8534 37.0454 49.6517 37.7198 48.4956C38.9868 46.2512 40.5571 44.1929 42.385 42.3773C53.7564 31.0373 72.1624 31.0373 83.5338 42.3773C83.8454 42.6917 84.157 43.0237 84.4556 43.353L84.4696 43.3688C93.9368 53.7507 94.627 69.4148 86.1087 80.5882C85.3124 81.6179 84.4519 82.5973 83.5338 83.52C82.6156 84.4343 81.6416 85.29 80.6156 86.0824C76.1429 89.4932 70.7726 91.5264 65.1622 91.9338ZM116.007 110.021C116.075 112.456 114.613 114.674 112.347 115.572C110.082 116.468 107.497 115.854 105.879 114.032L90.6679 96.6904L96.8103 90.6493L114.051 105.859C115.259 106.913 115.971 108.426 116.011 110.029L116.007 110.021Z" fill="url(#paint10_linear)"/>
<path d="M62.7914 48.1459C62.3077 47.9264 61.7571 47.9097 61.2613 48.0966C60.7645 48.2845 60.3627 48.6612 60.145 49.1448L50.1511 71.1283C49.8367 71.7812 49.8999 72.5532 50.3167 73.1456C50.7334 73.739 51.4385 74.0599 52.1594 73.9846C52.8803 73.9092 53.5035 73.4488 53.7891 72.7829L63.783 50.7994C64.0044 50.3167 64.0249 49.7652 63.8388 49.2667C63.6528 48.7681 63.2751 48.3654 62.7914 48.1459Z" fill="url(#paint11_linear)"/>
<path d="M54.862 48.1754C54.3876 47.9383 53.8378 47.8992 53.3355 48.0676C52.8323 48.235 52.4165 48.5958 52.1793 49.0711L46.1833 61.0618C45.6903 62.0495 46.0912 63.2503 47.0791 63.7432C48.0669 64.2371 49.2678 63.8362 49.7608 62.8485L55.7568 50.8578C55.994 50.3835 56.0331 49.8338 55.8656 49.3306C55.6973 48.8274 55.3364 48.4117 54.862 48.1754Z" fill="url(#paint12_linear)"/>
<defs>
<linearGradient id="paint0_linear" x1="102.604" y1="-0.248424" x2="102.604" y2="119.685" gradientUnits="userSpaceOnUse">
<stop stop-color="#F0AB52"/>
<stop offset="1" stop-color="#DC7539"/>
</linearGradient>
<linearGradient id="paint1_linear" x1="102.604" y1="-0.248424" x2="102.604" y2="119.685" gradientUnits="userSpaceOnUse">
<stop stop-color="#F0AB52"/>
<stop offset="1" stop-color="#DC7539"/>
</linearGradient>
<linearGradient id="paint2_linear" x1="102.604" y1="-0.248424" x2="102.604" y2="119.685" gradientUnits="userSpaceOnUse">
<stop stop-color="#F0AB52"/>
<stop offset="1" stop-color="#DC7539"/>
</linearGradient>
<linearGradient id="paint3_linear" x1="102.604" y1="-0.248424" x2="102.604" y2="119.685" gradientUnits="userSpaceOnUse">
<stop stop-color="#F0AB52"/>
<stop offset="1" stop-color="#DC7539"/>
</linearGradient>
<linearGradient id="paint4_linear" x1="102.604" y1="-0.248424" x2="102.604" y2="119.685" gradientUnits="userSpaceOnUse">
<stop stop-color="#F0AB52"/>
<stop offset="1" stop-color="#DC7539"/>
</linearGradient>
<linearGradient id="paint5_linear" x1="102.604" y1="-0.248424" x2="102.604" y2="119.685" gradientUnits="userSpaceOnUse">
<stop stop-color="#F0AB52"/>
<stop offset="1" stop-color="#DC7539"/>
</linearGradient>
<linearGradient id="paint6_linear" x1="102.604" y1="-0.248424" x2="102.604" y2="119.685" gradientUnits="userSpaceOnUse">
<stop stop-color="#F0AB52"/>
<stop offset="1" stop-color="#DC7539"/>
</linearGradient>
<linearGradient id="paint7_linear" x1="102.604" y1="-0.248424" x2="102.604" y2="119.685" gradientUnits="userSpaceOnUse">
<stop stop-color="#F0AB52"/>
<stop offset="1" stop-color="#DC7539"/>
</linearGradient>
<linearGradient id="paint8_linear" x1="102.604" y1="-0.248424" x2="102.604" y2="119.685" gradientUnits="userSpaceOnUse">
<stop stop-color="#F0AB52"/>
<stop offset="1" stop-color="#DC7539"/>
</linearGradient>
<linearGradient id="paint9_linear" x1="102.604" y1="-0.248424" x2="102.604" y2="119.685" gradientUnits="userSpaceOnUse">
<stop stop-color="#F0AB52"/>
<stop offset="1" stop-color="#DC7539"/>
</linearGradient>
<linearGradient id="paint10_linear" x1="102.604" y1="-0.248424" x2="102.604" y2="119.685" gradientUnits="userSpaceOnUse">
<stop stop-color="#F0AB52"/>
<stop offset="1" stop-color="#DC7539"/>
</linearGradient>
<linearGradient id="paint11_linear" x1="102.604" y1="-0.248424" x2="102.604" y2="119.685" gradientUnits="userSpaceOnUse">
<stop stop-color="#F0AB52"/>
<stop offset="1" stop-color="#DC7539"/>
</linearGradient>
<linearGradient id="paint12_linear" x1="102.604" y1="-0.248424" x2="102.604" y2="119.685" gradientUnits="userSpaceOnUse">
<stop stop-color="#F0AB52"/>
<stop offset="1" stop-color="#DC7539"/>
</linearGradient>
</defs>
</svg>
