<svg width="121" height="120" viewBox="0 0 121 120" fill="none" xmlns="http://www.w3.org/2000/svg">
<path fill-rule="evenodd" clip-rule="evenodd" d="M60.0766 7.37424C69.3822 7.37424 76.901 14.8975 76.901 24.2085C76.901 33.5195 69.3077 41.0428 60.0766 41.0428C50.7711 41.0428 43.2523 33.5195 43.2523 24.2085C43.2523 14.8975 50.7711 7.37424 60.0766 7.37424ZM60.0766 37.3184C67.2977 37.3184 73.1788 31.4338 73.1788 24.2085C73.1788 21.3035 72.211 18.5474 70.6477 16.3128L68.861 18.1005C70.1266 19.8882 70.7966 21.9739 70.7966 24.2085C70.7966 30.0931 66.0322 34.8603 60.1511 34.8603C57.9178 34.8603 55.8333 34.1899 54.0467 32.9236L52.26 34.7113C54.4189 36.35 57.0989 37.3184 60.0766 37.3184ZM60.0022 31.1359C63.7988 31.1359 66.9255 28.0074 66.9255 24.2085C66.9255 22.3463 66.2555 20.5586 64.9155 19.2923C63.5755 18.026 61.8633 17.2811 60.0022 17.2811C56.2055 17.2811 53.0789 20.4096 53.0789 24.2085C53.0789 26.0707 53.7489 27.7839 55.0889 29.1247C56.4289 30.391 58.1411 31.1359 60.0022 31.1359ZM60.0766 11.0986C52.8555 11.0986 46.9745 16.9832 46.9745 24.2085C46.9745 27.188 47.9422 29.8696 49.58 32.0297L51.2922 30.3165C50.0267 28.5288 49.3567 26.4431 49.3567 24.2085C49.3567 18.324 54.1211 13.5567 60.0022 13.5567C62.2355 13.5567 64.32 14.2271 66.1066 15.4934L67.8933 13.7057C65.7344 12.067 63.0544 11.0986 60.0766 11.0986Z" fill="url(#paint0_linear)"/>
<path d="M60.0757 50.1291C61.391 50.1291 62.4572 49.0622 62.4572 47.7461C62.4572 46.43 61.391 45.3632 60.0757 45.3632C58.7605 45.3632 57.6943 46.43 57.6943 47.7461C57.6943 49.0622 58.7605 50.1291 60.0757 50.1291Z" fill="url(#paint1_linear)"/>
<path fill-rule="evenodd" clip-rule="evenodd" d="M61.6399 69.8696L60.0765 72.2533L58.5132 69.8696C51.8132 59.5903 36.2544 34.6369 36.2544 23.8361C36.2544 10.7263 46.9744 0 60.0765 0C73.1787 0 83.8987 10.6518 83.8987 23.8361C83.8987 34.6369 68.3399 59.6648 61.6399 69.8696ZM80.1765 23.8361C80.1765 12.7374 71.1687 3.72439 60.0765 3.72439C48.9844 3.72439 39.9766 12.7374 39.9766 23.8361C39.9766 31.4339 50.101 49.8324 60.0765 65.4004C70.0521 49.8324 80.1765 31.4339 80.1765 23.8361Z" fill="url(#paint2_linear)"/>
<path fill-rule="evenodd" clip-rule="evenodd" d="M85.1641 57.7281L104.743 53.8548L120.004 115.605L93.5763 120L60.002 115.978L26.4277 120L0 115.605L15.4099 53.8548L34.9888 57.7281L45.1876 56.0149L45.7832 59.6648L36.6265 61.229L35.9565 66.1453L45.1876 64.581L45.7832 68.2309L35.361 70.0186L28.7354 115.978L58.2153 112.402V106.965L51.5898 107.709L51.1431 103.985L58.2153 103.166V79.5531H61.9375V103.166L69.0097 103.985L68.5631 107.709L61.9375 106.965V112.402L91.4174 115.978L84.7919 70.0186L74.3697 68.2309L74.9653 64.581L84.1963 66.1453L83.5264 61.229L74.3697 59.6648L74.9653 56.0149L85.1641 57.7281ZM95.2141 115.978L115.537 112.551L101.914 58.2495L87.2486 61.1546L87.993 66.2942L96.2563 64.6555L97.0007 68.3054L88.5885 69.9441L95.2141 115.978ZM32.7554 61.1546L18.0899 58.2495L4.54109 112.477L24.8644 115.903L31.4899 69.8696L23.0777 68.2309L23.8221 64.581L32.011 66.2942L32.7554 61.1546Z" fill="url(#paint3_linear)"/>
<defs>
<linearGradient id="paint0_linear" x1="102.604" y1="-0.248424" x2="102.604" y2="119.685" gradientUnits="userSpaceOnUse">
<stop stop-color="#F0AB52"/>
<stop offset="1" stop-color="#DC7539"/>
</linearGradient>
<linearGradient id="paint1_linear" x1="102.604" y1="-0.248424" x2="102.604" y2="119.685" gradientUnits="userSpaceOnUse">
<stop stop-color="#F0AB52"/>
<stop offset="1" stop-color="#DC7539"/>
</linearGradient>
<linearGradient id="paint2_linear" x1="102.604" y1="-0.248424" x2="102.604" y2="119.685" gradientUnits="userSpaceOnUse">
<stop stop-color="#F0AB52"/>
<stop offset="1" stop-color="#DC7539"/>
</linearGradient>
<linearGradient id="paint3_linear" x1="102.604" y1="-0.248424" x2="102.604" y2="119.685" gradientUnits="userSpaceOnUse">
<stop stop-color="#F0AB52"/>
<stop offset="1" stop-color="#DC7539"/>
</linearGradient>
</defs>
</svg>
