<svg xmlns="http://www.w3.org/2000/svg" xmlns:xlink="http://www.w3.org/1999/xlink" width="37" height="43" viewBox="0 0 37 43"><defs><path id="2wl8a" d="M1068.313 1064.326h-10.087v-10.401h10.087zm-21.862-19.642h10.098v19.642h-10.098zm-11.774 4.62h10.087v15.022h-10.087zm23.549 2.937v-8.399a.84.84 0 0 0-.839-.842h-11.774a.84.84 0 0 0-.839.842v3.778h-10.936a.84.84 0 0 0-.838.842v16.696a.84.84 0 0 0 .838.842h35.324a.84.84 0 0 0 .838-.842v-12.075a.84.84 0 0 0-.838-.842z"/><path id="2wl8b" d="M1051.5 1049a.481.481 0 0 1-.191-.038.502.502 0 0 1-.309-.462.502.502 0 0 1 .854-.353.49.49 0 0 1 .136.255.486.486 0 0 1-.028.29.531.531 0 0 1-.108.162.485.485 0 0 1-.257.136.497.497 0 0 1-.097.01z"/><path id="2wl8c" d="M1051.5 1061c-.276 0-.5-.402-.5-.896v-9.208c0-.495.224-.896.5-.896s.5.401.5.896v9.208c0 .494-.224.896-.5.896z"/><path id="2wl8d" d="M1038.5 1061c-.276 0-.5-.369-.5-.823v-3.354c0-.454.224-.823.5-.823s.5.369.5.823v3.354c0 .454-.224.823-.5.823z"/><path id="2wl8e" d="M1040.5 1061c-.276 0-.5-.369-.5-.823v-3.354c0-.454.224-.823.5-.823s.5.369.5.823v3.354c0 .454-.224.823-.5.823z"/><path id="2wl8f" d="M1059.5 1061c-.276 0-.5-.369-.5-.823v-3.354c0-.454.224-.823.5-.823s.5.369.5.823v3.354c0 .454-.224.823-.5.823z"/><path id="2wl8g" d="M1063.5 1061c-.276 0-.5-.369-.5-.823v-3.354c0-.454.224-.823.5-.823s.5.369.5.823v3.354c0 .454-.224.823-.5.823z"/><path id="2wl8h" d="M1065.5 1061c-.276 0-.5-.369-.5-.823v-3.354c0-.454.224-.823.5-.823s.5.369.5.823v3.354c0 .454-.224.823-.5.823z"/><path id="2wl8i" d="M1063.5 1042.999c.109 0 .218.022.32.066l1.62.7-.138-1.82a.896.896 0 0 1 .198-.636l1.14-1.388-1.706-.426a.84.84 0 0 1-.518-.393l-.916-1.557-.915 1.557a.84.84 0 0 1-.519.393l-1.705.426 1.139 1.388a.893.893 0 0 1 .198.635l-.138 1.82 1.62-.699a.805.805 0 0 1 .32-.066zm2.882 3.001a.804.804 0 0 1-.32-.067l-2.562-1.107-2.561 1.107a.808.808 0 0 1-.813-.1.888.888 0 0 1-.342-.775l.218-2.883-1.801-2.2a.902.902 0 0 1-.16-.837.852.852 0 0 1 .6-.58l2.697-.674 1.448-2.467a.83.83 0 0 1 .714-.417.83.83 0 0 1 .714.417l1.448 2.467 2.696.675c.283.07.51.29.601.58.09.288.03.605-.16.836l-1.8 2.2.217 2.883a.888.888 0 0 1-.342.775.812.812 0 0 1-.492.167z"/><path id="2wl8j" d="M1035.36 1039.92l1.14 1.389a.896.896 0 0 1 .198.635l-.138 1.82 1.62-.699a.806.806 0 0 1 .64 0l1.62.7-.138-1.82a.897.897 0 0 1 .198-.636l1.14-1.388-1.706-.426a.838.838 0 0 1-.518-.393l-.916-1.557-.916 1.557a.839.839 0 0 1-.518.393zm.258 6.08a.814.814 0 0 1-.492-.167.889.889 0 0 1-.342-.775l.218-2.883-1.802-2.2a.903.903 0 0 1-.16-.837.852.852 0 0 1 .602-.58l2.696-.674 1.448-2.467a.83.83 0 0 1 .714-.417.83.83 0 0 1 .714.417l1.448 2.467 2.696.675c.284.07.511.29.601.58.09.288.03.605-.16.836l-1.8 2.2.217 2.883a.888.888 0 0 1-.342.775.807.807 0 0 1-.813.1l-2.561-1.107-2.561 1.107a.805.805 0 0 1-.32.067z"/><path id="2wl8k" d="M1059.034 1029.372a2.704 2.704 0 0 1-.75 1.59 2.639 2.639 0 0 1-.595.457l.44-4.109h1.129zm-11.019 2.394l-.77-7.09h9.522l-.762 7.088c-.226 2.072-1.944 3.633-3.995 3.633s-3.769-1.56-3.995-3.631zm5.204 7.558h-2.438l.33-2.322a5.601 5.601 0 0 0 1.778.002zm-8.253-9.952l-.224-2.062h1.132l.447 4.115a2.647 2.647 0 0 1-.606-.463 2.704 2.704 0 0 1-.749-1.59zm15.211-3.738h-1.867l.183-1.705a.848.848 0 0 0-.205-.65.818.818 0 0 0-.613-.279h-11.35a.817.817 0 0 0-.613.279.849.849 0 0 0-.205.651l.185 1.704h-1.87a.817.817 0 0 0-.612.28.85.85 0 0 0-.205.65l.325 2.993a4.4 4.4 0 0 0 1.218 2.587 4.275 4.275 0 0 0 2.154 1.192 5.724 5.724 0 0 0 2.818 3.156l-.402 2.832h-.26a.831.831 0 0 0-.823.838.83.83 0 0 0 .823.838h6.284a.83.83 0 0 0 .823-.838.83.83 0 0 0-.823-.838h-.26l-.401-2.828a5.722 5.722 0 0 0 2.827-3.163 4.274 4.274 0 0 0 2.144-1.19 4.4 4.4 0 0 0 1.218-2.586l.325-2.992a.848.848 0 0 0-.205-.652.816.816 0 0 0-.613-.279z"/></defs><g><g transform="translate(-1033 -1023)"><g><use fill="#ffae29" xlink:href="#2wl8a"/></g><g><use fill="#ffae29" xlink:href="#2wl8b"/></g><g><use fill="#ffae29" xlink:href="#2wl8c"/></g><g><use fill="#ffae29" xlink:href="#2wl8d"/></g><g><use fill="#ffae29" xlink:href="#2wl8e"/></g><g><use fill="#ffae29" xlink:href="#2wl8f"/></g><g><use fill="#ffae29" xlink:href="#2wl8g"/></g><g><use fill="#ffae29" xlink:href="#2wl8h"/></g><g><use fill="#ffae29" xlink:href="#2wl8i"/></g><g><use fill="#ffae29" xlink:href="#2wl8j"/></g><g><use fill="#ffae29" xlink:href="#2wl8k"/></g></g></g></svg>