<svg xmlns="http://www.w3.org/2000/svg" xmlns:xlink="http://www.w3.org/1999/xlink" width="40" height="39" viewBox="0 0 40 39"><defs><path id="jwcwa" d="M505.737 1049.866l1.48 8.487a.497.497 0 0 1-.208.502.515.515 0 0 1-.55.04l-7.745-4.008a2.643 2.643 0 0 0-2.428 0l-7.744 4.007a.515.515 0 0 1-.55-.039.497.497 0 0 1-.208-.502l1.48-8.487a2.543 2.543 0 0 0-.751-2.274l-6.266-6.01a.495.495 0 0 1-.132-.527.505.505 0 0 1 .422-.35l8.658-1.238a2.607 2.607 0 0 0 1.965-1.405l3.872-7.722a.51.51 0 0 1 .468-.286.51.51 0 0 1 .468.286l3.872 7.722a2.606 2.606 0 0 0 1.965 1.405l8.659 1.239c.29.04.39.258.42.35a.495.495 0 0 1-.131.526l-6.265 6.01a2.542 2.542 0 0 0-.75 2.274zm8.473-6.818c.717-.687.97-1.695.66-2.632a2.582 2.582 0 0 0-2.106-1.747l-8.659-1.238a.521.521 0 0 1-.393-.28l-3.872-7.72a2.598 2.598 0 0 0-2.34-1.431c-1 0-1.897.548-2.34 1.431l-3.872 7.72a.522.522 0 0 1-.393.28l-8.659 1.238a2.582 2.582 0 0 0-2.106 1.747 2.523 2.523 0 0 0 .66 2.632l6.265 6.009c.123.118.18.288.15.454l-1.479 8.485c-.169.97.229 1.932 1.039 2.51a2.63 2.63 0 0 0 2.748.196l7.744-4.005a.53.53 0 0 1 .486 0l7.744 4.005a2.627 2.627 0 0 0 2.748-.196 2.533 2.533 0 0 0 1.039-2.51l-1.48-8.485a.509.509 0 0 1 .15-.454z"/><path id="jwcwb" d="M509.596 1029.22c-.438-.374-1.05-.26-1.369.256l-1.04 1.689c-.318.516-.22 1.24.217 1.614a.88.88 0 0 0 .575.221c.303 0 .602-.165.794-.476l1.04-1.689c.318-.516.22-1.24-.217-1.614z"/><path id="jwcwc" d="M486.813 1031.165l-1.04-1.689c-.318-.516-.931-.63-1.369-.255-.438.375-.535 1.098-.217 1.614l1.04 1.688c.192.312.49.477.794.477.2 0 .401-.072.575-.22.438-.376.535-1.099.217-1.615z"/><path id="jwcwd" d="M480.947 1051.81c-.184-.615-.79-.952-1.356-.752l-1.847.654c-.566.2-.875.862-.691 1.477.148.496.57.811 1.023.811.11 0 .222-.019.333-.058l1.847-.654c.565-.2.875-.862.691-1.478z"/><path id="jwcwe" d="M498 1063c-.552 0-1 .47-1 1.051v1.898c0 .58.448 1.051 1 1.051s1-.47 1-1.051v-1.898c0-.58-.448-1.051-1-1.051z"/><path id="jwcwf" d="M516.256 1051.712l-1.847-.654c-.565-.2-1.172.137-1.356.752-.184.616.125 1.278.69 1.478l1.848.654c.11.04.223.058.333.058.454 0 .875-.315 1.023-.81.184-.616-.126-1.278-.69-1.478z"/></defs><g><g transform="translate(-477 -1028)"><g><use fill="#ffae29" xlink:href="#jwcwa"/></g><g><use fill="#ffae29" xlink:href="#jwcwb"/></g><g><use fill="#ffae29" xlink:href="#jwcwc"/></g><g><use fill="#ffae29" xlink:href="#jwcwd"/></g><g><use fill="#ffae29" xlink:href="#jwcwe"/></g><g><use fill="#ffae29" xlink:href="#jwcwf"/></g></g></g></svg>