<svg xmlns="http://www.w3.org/2000/svg" xmlns:xlink="http://www.w3.org/1999/xlink" width="41" height="40" viewBox="0 0 41 40"><defs><path id="x12ya" d="M237.477 1052.125c-1.468-5.029-5.061-7.199-7.896-8.151 2.835-.953 6.428-3.123 7.896-8.152 1.468 5.029 5.062 7.199 7.897 8.152-2.835.952-6.429 3.122-7.897 8.15zm12.402-8.469c-.101-.212-.354-.318-.557-.37-1.164 0-11.187-.424-11.187-12.598 0-.37-.303-.688-.658-.688-.354 0-.658.318-.658.688 0 12.174-10.022 12.597-11.136 12.597a.56.56 0 0 0-.405.16c-.1.052-.151.158-.202.211a.817.817 0 0 0 0 .688c.101.212.354.37.607.37h.051c1.164 0 11.136.424 11.136 12.598 0 .37.304.688.658.688.354 0 .658-.318.658-.688 0-12.121 9.972-12.597 11.136-12.597.253 0 .456-.16.607-.37a.676.676 0 0 0-.05-.689z"/><path id="x12yb" d="M222.449 1032.637c-.822-1.948-2.312-3.025-3.699-3.64 1.49-.615 2.877-1.794 3.699-3.64.822 1.948 2.311 3.025 3.698 3.64-1.49.615-2.876 1.794-3.698 3.64zm6.883-2.922c.36 0 .668-.308.668-.718a.68.68 0 0 0-.668-.666c-.616 0-6.164-.205-6.164-6.665a.68.68 0 0 0-.668-.666.68.68 0 0 0-.668.666c0 6.46-5.548 6.665-6.164 6.665h-.052c-.36.051-.616.307-.616.666a.68.68 0 0 0 .668.667c.668 0 6.164.205 6.164 6.664a.68.68 0 0 0 .668.666c.308.052.616-.256.616-.615 0-6.459 5.548-6.664 6.165-6.664z"/><path id="x12yc" d="M216.449 1056.688c-.874-1.95-2.312-3.026-3.699-3.642 1.49-.615 2.877-1.795 3.699-3.641.822 1.949 2.311 3.026 3.698 3.641-1.49.616-2.876 1.795-3.698 3.642zm6.883-4.364c-.616 0-6.164-.205-6.164-6.658a.679.679 0 0 0-.668-.666.679.679 0 0 0-.668.666c0 6.453-5.548 6.658-6.164 6.658h-.052c-.36.051-.616.308-.616.666 0 .359.308.666.668.666.668 0 6.164.205 6.164 6.658 0 .359.308.666.668.666.308.103.616-.205.616-.614 0-6.454 5.548-6.659 6.165-6.659h.051c.36 0 .668-.307.668-.717a.679.679 0 0 0-.668-.666z"/></defs><g><g transform="translate(-209 -1021)"><g><use fill="#ffac24" xlink:href="#x12ya"/></g><g><use fill="#ffac24" xlink:href="#x12yb"/></g><g><use fill="#ffac24" xlink:href="#x12yc"/></g></g></g></svg>