<svg xmlns="http://www.w3.org/2000/svg" xmlns:xlink="http://www.w3.org/1999/xlink" width="23" height="22" viewBox="0 0 23 22"><defs><path id="tx3ja" d="M1239.834 597.125c0 2.654-2.256 4.813-5.029 4.813h-8.62c-2.773 0-5.029-2.16-5.029-4.813v-8.25c0-2.654 2.256-4.813 5.029-4.813h8.62c2.773 0 5.029 2.16 5.029 4.813zM1234.812 582h-8.624c-3.97 0-7.188 3.079-7.188 6.875v8.25c0 3.796 3.219 6.875 7.188 6.875h8.624c3.97 0 7.188-3.079 7.188-6.875v-8.25c0-3.796-3.219-6.875-7.188-6.875z"/><path id="tx3jb" d="M1230.503 596.348c-1.932 0-3.504-1.503-3.504-3.349 0-1.848 1.572-3.35 3.504-3.35 1.93 0 3.503 1.502 3.503 3.35 0 1.846-1.572 3.35-3.503 3.35zm0-8.708c-3.094 0-5.603 2.4-5.603 5.359 0 2.96 2.509 5.359 5.603 5.359s5.602-2.4 5.602-5.359c0-2.96-2.508-5.359-5.602-5.359z"/><path id="tx3jc" d="M1236.1 587.355c0-.467.396-.845.885-.845s.885.378.885.845c0 .467-.396.845-.885.845s-.885-.378-.885-.845z"/></defs><g><g transform="translate(-1219 -582)"><g><use xlink:href="#tx3ja"/></g><g><use xlink:href="#tx3jb"/></g><g><use xlink:href="#tx3jc"/></g></g></g></svg>