<svg width="179" height="108" viewBox="0 0 179 108" fill="none" xmlns="http://www.w3.org/2000/svg">
<path d="M87.6285 2.81467V10.2152C86.3211 11.3037 84.9298 12.4971 83.4306 13.8135V7.01271H69.3376V26.6355L68.9328 27.0074C67.6674 28.1908 66.403 29.3793 65.1396 30.5727V2.81467H87.6285Z" fill="url(#paint0_linear)"/>
<path d="M156.261 27.1753L152.324 29.922C145.566 20.2275 131.769 4.07408 115.338 4.81773C109.011 5.0966 103.922 7.63341 87.9283 22.0657C86.605 23.2651 85.2057 24.5425 83.7304 25.8979C82.1312 27.3612 80.445 28.9275 78.6719 30.5967L75.9942 33.1095C74.513 34.5089 73.0337 35.9082 71.5564 37.3076C62.9117 45.5297 54.369 53.8988 46.0451 62.3039C44.6358 63.7252 43.2365 65.1475 41.8472 66.5709L39.4874 64.256L38.4199 63.2035C47.2056 54.2406 56.2611 45.2958 65.4455 36.5159C66.8448 35.1786 68.2441 33.8462 69.6434 32.5188C71.5584 30.7016 73.4775 28.8935 75.4005 27.0943C78.447 24.2427 81.2116 21.6968 83.7364 19.3909C85.2137 18.0436 86.613 16.7871 87.9343 15.6217C101.865 3.30943 107.629 0.358811 115.131 0.0289648C133.85 -0.807644 148.936 16.6742 156.261 27.1753ZM127.958 20.6563V37.9642L124.36 39.0317V36.5489H115.665V41.6165L112.066 42.684V36.5489H103.371V45.2448H103.449L99.7724 46.3363V20.6563H127.958ZM112.066 24.2547H103.371V32.9506H112.066V24.2547ZM124.36 24.2547H115.665V32.9506H124.36V24.2547Z" fill="url(#paint1_linear)"/>
<path d="M42.1499 82.8143C42.1229 82.9103 42.093 83.0032 42.063 83.0992L42.2278 83.0482L42.1499 82.8143Z" fill="black"/>
<path d="M68.8604 61.4703C69.7389 60.6127 70.6205 59.7611 71.505 58.9065C70.496 59.6189 69.6038 60.4838 68.8604 61.4703Z" fill="black"/>
<path d="M99.6557 65.8872C99.6557 65.9264 99.6346 65.9626 99.6226 66.0018L99.6859 65.9837C99.6768 65.9505 99.6648 65.9204 99.6557 65.8872Z" fill="black"/>
<path d="M178.969 42.4322C178.936 41.7056 178.669 41.0092 178.207 40.4471C177.464 39.6555 176.612 39.6255 176.435 40.7469C176.305 41.6263 176.116 42.4959 175.868 43.3497C174.984 46.4413 173.398 49.26 171.775 49.7427C171.26 49.8957 170.912 49.4909 170.666 48.6602C170.42 47.8296 170.408 46.5102 170.588 44.918C170.81 43.1397 171.148 41.3778 171.599 39.6435C172.069 37.5984 172.396 35.9222 172.438 34.5159C172.473 33.789 172.392 33.0613 172.198 32.3599C171.959 31.4054 171.37 30.5752 170.549 30.0329C169.65 29.4542 169.05 29.7331 168.585 31.0105C168.029 32.6686 167.569 34.3577 167.209 36.0691C166.981 37.0857 166.765 38.1681 166.567 39.2207C165.168 40.1738 163.711 41.039 162.204 41.8114C162.546 40.3121 162.867 38.9088 163.128 37.7034C163.167 37.5504 163.197 37.4035 163.221 37.2536C163.357 36.4321 163.3 35.59 163.053 34.7947C162.85 34.1431 162.531 33.5336 162.111 32.9956C161.916 32.7375 161.699 32.4976 161.461 32.2789C160.666 31.4993 159.874 31.6792 159.494 32.8636C159.251 33.6433 159.011 34.4679 158.774 35.3225C158.474 36.4619 158.15 37.6494 157.856 38.8458C157.374 40.8309 156.933 42.834 156.57 44.6691C155.97 48.0036 156.57 44.6691 155.97 48.0036C155.901 48.4653 155.856 48.9031 155.823 49.3019L155.802 49.3769C154.903 52.4025 153.625 55.1792 152.282 55.578C151.607 55.7789 151.143 55.3531 150.867 54.4206C150.591 53.488 150.642 52.2106 150.846 50.7773C151.127 48.9558 151.519 47.1532 152.021 45.3798C152.491 43.7106 152.823 42.0057 153.014 40.2822C153.046 39.9543 153.061 39.625 153.059 39.2956C153.069 38.6881 152.992 38.0822 152.831 37.4965C152.59 36.5241 152.036 35.658 151.254 35.0316C150.354 34.3359 149.601 34.7887 149.155 35.9882C148.519 37.5984 148.141 39.5085 147.67 41.8714C147.632 42.0713 147.59 42.2782 147.545 42.4921C147.185 44.2913 146.753 46.3543 146.114 48.7322C145.733 50.0696 145.329 51.362 144.915 52.5464C143.805 55.7279 142.636 58.1118 141.655 58.4027C140.513 58.7415 140.099 56.7775 140.417 54.4266C140.444 54.2406 140.471 54.0517 140.501 53.8568C141.002 50.6453 142.057 46.3753 142.414 43.4337C142.561 42.2342 142.591 41.2327 142.414 40.639C142.169 39.7741 141.641 39.0162 140.915 38.486C140.063 37.8863 139.098 38.0662 138.687 39.1487C138.018 41.0918 137.449 43.0978 136.987 45.0409C136.241 48.0258 135.757 51.0698 135.538 54.1387C135.538 54.1387 135.538 54.1537 135.538 54.1597C135.455 54.5705 135.356 54.9963 135.239 55.4161C134.516 58.2498 133.35 61.0355 131.94 61.2783C130.531 61.5212 129.062 60.1209 127.832 57.6111C127.479 56.8882 127.174 56.1429 126.918 55.3801C131.056 51.9737 132.726 49.0381 133.67 46.0215C133.802 45.6017 133.919 45.1819 134.027 44.7561C134.22 44.0521 134.235 43.3114 134.072 42.6001C133.535 40.7859 131.973 40.2372 131.149 42.0573C130.307 44.0021 129.309 45.8753 128.165 47.6587C127.997 47.9166 127.826 48.1685 127.652 48.4144C127.553 48.5583 127.454 48.6962 127.353 48.8342C126.078 50.6255 124.529 52.2043 122.762 53.512C122.534 53.6919 122.393 53.7908 122.216 53.9558C122.642 51.9677 122.978 50.6273 123.116 49.7427C123.154 49.5268 123.184 49.3269 123.206 49.143C123.222 49.0411 123.234 48.9411 123.242 48.8432C123.322 48.1681 123.271 47.4838 123.092 46.8281C122.877 46.2493 122.561 45.7132 122.159 45.2448C122.099 45.1669 122.042 45.0889 121.988 45.0109C120.999 43.6796 120.156 44.0754 119.628 45.2448L119.565 45.3918C119.119 46.6542 118.738 47.7907 118.411 48.8432C118.207 49.5059 118.021 50.1326 117.859 50.7293C117.202 53.0329 116.785 55.3984 116.615 57.788C116.521 58 116.615 57.788 116.021 59C114.741 61.5092 116.021 59 114.741 61.5092C113.403 64.6218 111.299 67.8063 108.303 68.6399C106.891 69.0027 105.541 67.8813 104.864 65.6023C104.759 65.2462 104.678 64.8836 104.621 64.5168C104.369 62.7967 104.394 61.0474 104.696 59.3353C105.005 57.5775 105.498 55.8569 106.165 54.2017C107.116 51.8508 108.192 50.2855 108.669 50.4894C108.936 50.6333 108.852 51.6738 108.639 52.8643C108.612 53.0832 108.588 53.2901 108.567 53.488C108.348 55.4641 108.405 56.4386 108.588 57.0533C109.002 58.4537 110.174 59.1763 111.287 59.4702C112.486 59.6801 112.912 59.4372 112.984 58.3457C113.027 57.5401 113.128 56.7385 113.284 55.9468C113.517 54.5435 113.706 53.1941 113.529 52.0217C113.435 51.2716 113.122 50.5658 112.63 49.9916C112.159 49.5317 111.621 49.1455 111.035 48.8462C109.694 48.1415 108.036 47.7487 106.723 48.1355C106.184 48.3003 105.672 48.5395 105.2 48.8462C103.245 50.0786 101.355 52.5464 100.198 55.9768C99.849 57.0172 99.5803 58.0828 99.3945 59.1643C98.9313 61.3091 98.9919 63.534 99.5714 65.6503C99.5954 65.7313 99.6193 65.8122 99.6463 65.8902C99.6733 65.9682 99.6673 65.9532 99.6763 65.9862L99.6133 66.0041C98.6958 69.0567 97.4244 71.8724 96.0691 72.2742C95.3974 72.4721 94.9327 72.0493 94.6538 71.1138C94.375 70.1782 94.4319 68.9128 94.6298 67.4855C94.9138 65.6643 95.3074 63.8618 95.8082 62.088C96.2799 60.4191 96.6129 58.7141 96.8037 56.9904C96.9165 56.0525 96.8545 55.1019 96.6208 54.1867C96.3799 53.2142 95.8256 52.348 95.0436 51.7218C94.159 51.0261 93.3914 51.4789 92.9597 52.6784C92.321 54.2916 91.9432 56.2017 91.4604 58.5736C91.0736 60.5167 90.6208 62.7717 89.9102 65.4224C89.5264 66.7628 89.1216 68.0612 88.7108 69.2486C87.6013 72.4212 86.4349 74.799 85.4514 75.0899C84.312 75.4287 83.8982 73.4677 84.216 71.1168C84.24 70.9338 84.27 70.7479 84.3 70.559C84.7947 67.3505 85.8502 63.0805 86.207 60.1359C86.3599 58.9185 86.3899 57.9259 86.207 57.3292C85.9664 56.466 85.4439 55.7081 84.7228 55.1762C83.8682 54.5765 82.9057 54.7564 82.4949 55.8359C81.8262 57.785 81.2535 59.797 80.7917 61.7431C80.0425 64.7364 79.5579 67.7897 79.3434 70.8679C79.3164 71.2667 79.3074 71.6565 79.3194 72.0343C79.3194 72.3342 79.3524 72.655 79.3884 72.9519C78.4199 75.6087 77.1665 77.8306 76.0451 78.1635C75.2654 78.3944 74.7047 77.8276 74.3959 76.7931C74.1351 75.733 74.0963 74.6304 74.2819 73.5546C74.2819 73.5546 74.2819 73.5396 74.2819 73.5306C74.4798 72.2802 75.0286 69.6025 75.4813 67.9532C75.9251 66.409 76.237 64.7957 76.4619 63.6562C76.4954 63.4419 76.5135 63.2255 76.5158 63.0085C76.5328 62.4802 76.4639 61.9526 76.3119 61.4463C75.7122 59.4762 73.6882 58.1088 72.2879 58.5256C71.9994 58.6173 71.7249 58.7485 71.4723 58.9155C70.462 59.6263 69.5696 60.4915 68.8276 61.4793C68.1338 62.3497 67.5016 63.2675 66.9356 64.226C66.8997 63.9742 66.8446 63.7256 66.7707 63.4823L66.7107 63.2784C66.4293 62.388 65.9197 61.5867 65.2324 60.9545C64.4318 60.3548 63.7062 60.5617 63.2954 61.6442C62.6363 63.733 61.7861 65.7566 60.7557 67.6894C59.7482 69.5305 58.6147 71.0388 57.4573 71.7794C57.1932 70.8142 56.8189 69.8825 56.3419 69.0027C55.8499 68.1196 55.1097 67.4003 54.2129 66.9337C53.8068 66.7185 53.4152 66.4771 53.0405 66.211C51.7541 65.2965 50.1229 64.9336 48.6147 65.5514C45.8891 66.6039 43.7691 69.6984 42.6177 73.0778C42.4198 73.6506 42.2519 74.2323 42.1139 74.811C41.9686 75.3916 41.8525 75.979 41.7661 76.5712C41.4194 78.5988 41.5217 80.6777 42.066 82.6614C42.0809 82.7153 42.0989 82.7663 42.1139 82.8203L42.1919 83.0542L42.027 83.1052C41.0824 85.9688 39.2833 88.9165 36.4677 90.4128C37.5262 88.8685 38.4108 86.6165 38.9025 84.0317C38.9955 83.537 39.0764 83.0302 39.1394 82.5144C39.5922 79.6718 39.6372 76.7841 38.9745 74.5562C38.9385 74.4332 38.8995 74.3103 38.8545 74.1903C38.7617 73.9202 38.6505 73.6567 38.5217 73.4017C37.9438 72.129 36.912 71.1176 35.6282 70.565C34.7054 70.213 33.6906 70.1845 32.7496 70.4841C31.3493 70.8979 30.0509 72.0163 29.0134 73.2847C28.85 72.5943 28.4683 71.9749 27.925 71.5186C27.3403 71.0718 26.6056 71.0658 26.0119 72.4811C25.3421 74.4622 24.7726 76.4758 24.3058 78.5143C23.5442 81.6478 22.7406 85.4111 22.0509 89.0394C21.0434 94.3439 20.2878 99.3696 20.2698 101.762C20.2115 102.959 20.339 104.158 20.6476 105.316C20.9714 106.401 21.4452 107.052 22.5157 107.805C23.2173 108.272 23.778 107.883 23.916 106.824C24.6266 101.094 25.5262 95.9751 26.5457 91.0514C28.5697 93.4953 31.5232 94.14 35.6162 92.9256C39.2144 91.8521 42.5727 89.7471 44.1949 86.2057C44.4031 86.4181 44.6234 86.6183 44.8546 86.8054C45.6522 87.4335 46.5905 87.8582 47.5887 88.0432C48.5869 88.2281 49.6151 88.1676 50.5847 87.8669C54.3119 86.7604 56.4288 82.7693 57.2624 78.5893C57.5771 76.9971 57.7138 75.3749 57.6702 73.7525C58.9655 73.3687 59.5892 73.1828 60.5218 72.3432C60.1841 74.1617 59.9389 75.9962 59.7871 77.8396C59.7602 78.1845 59.7392 78.4993 59.7272 78.7812C59.6462 79.7419 59.7242 80.7095 59.9581 81.6448C60.0985 82.164 60.3404 82.6501 60.6698 83.0752C60.9992 83.5003 61.4095 83.856 61.8771 84.1217C62.9836 84.8084 63.5533 84.0737 63.6762 83.3091C63.9761 81.0661 64.3299 78.6612 64.7887 76.3583C65.3884 73.3597 66.156 70.541 67.1635 68.457C67.682 67.3667 68.2617 66.3065 68.8996 65.2815C70.132 63.3204 71.1365 62.3189 71.4573 62.2199C71.5743 62.1869 71.3734 63.5633 71.1815 64.6188C71.1185 64.9576 71.0585 65.2635 71.0076 65.4704C70.4318 67.8963 69.5083 71.0988 69.3584 73.9684C69.3434 74.3372 69.3374 74.6881 69.3434 75.0209C69.3471 75.8886 69.4671 76.7519 69.7002 77.5877C70.5008 80.2865 72.5758 81.5819 75.9971 80.5683C77.8442 80.0196 79.6283 78.5863 80.9236 76.8351C81.7932 77.7916 83.0436 78.2504 84.6898 77.7617C87.3314 76.979 89.1875 74.6791 90.3659 72.1873C91.2655 74.4572 93.2655 75.4857 96.324 74.5861C98.6568 73.8935 100.663 71.7794 101.82 69.3686C103.58 70.9728 106.114 71.5456 109.128 70.616C112.336 69.6175 115.17 67.0177 116.723 64.133C116.769 64.3809 116.828 64.6262 116.9 64.8677C117.109 65.755 117.661 66.5235 118.435 67.0057C119.287 67.6054 120.093 67.0776 120.186 66.262C120.507 63.6802 120.843 61.4913 121.161 59.6231C121.422 58.0998 121.667 56.7894 121.889 55.662C122.205 56.8226 122.634 57.9495 123.17 59.0264C125.356 63.3324 128.675 64.5408 131.817 63.6532C134.279 62.9546 135.784 61.3353 136.744 59.6231C137.61 60.9155 138.993 61.6382 140.912 61.0684C143.557 60.2828 145.41 57.9829 146.588 55.4911C147.488 57.764 149.488 58.8045 152.546 57.8899C154.216 57.3952 155.718 56.1687 156.861 54.6275C157.195 55.04 157.611 55.3798 158.081 55.626C159.158 56.2257 159.739 55.698 159.856 54.7624C160.129 52.6844 160.552 50.2405 161.032 47.7727C161.191 46.966 161.353 46.1594 161.518 45.3588C163.017 44.5702 164.582 43.7156 165.979 42.9059C165.852 43.7004 165.768 44.5012 165.727 45.3048C165.709 45.6886 165.706 46.0515 165.727 46.3933C165.73 47.25 165.849 48.1024 166.081 48.9271C166.852 51.5179 168.84 52.9003 171.949 51.9767C175.059 51.0531 178.3 47.7247 178.936 43.9824C179.008 43.4688 179.019 42.9484 178.969 42.4322ZM34.2968 81.6448C34.0696 83.0076 33.7602 84.3555 33.3703 85.681C32.5427 88.4337 31.4782 90.2628 30.3718 90.5957C29.4722 90.8595 28.5397 89.3662 28.1799 87.2282C27.9831 86.0198 27.9831 84.7874 28.1799 83.5789L29.0074 80.2805C29.3034 79.0814 29.6955 77.9082 30.1799 76.7721C31.2653 74.2473 32.5607 72.646 33.3103 72.745C33.6102 72.772 33.889 73.3627 34.1679 74.2953C34.2821 74.6892 34.3723 75.0898 34.4377 75.4947C34.7326 77.5384 34.685 79.6168 34.2968 81.6448ZM52.6117 77.5488C52.5547 77.9086 52.4858 78.2714 52.4108 78.6343C52.3089 79.159 52.1889 79.6598 52.06 80.1336C51.1964 83.2761 49.7811 85.2312 48.6237 85.627C47.8981 85.8429 47.1994 85.2042 46.7526 83.7019C46.5781 83.085 46.4587 82.4538 46.3958 81.8158C46.3688 81.5579 46.3478 81.291 46.3328 81.0181C46.2436 79.283 46.398 77.5438 46.7916 75.8516C47.178 74.3018 47.7195 72.7949 48.4078 71.3537C48.4708 71.2187 48.5397 71.0898 48.6087 70.9608C48.6717 71.0508 48.7376 71.1437 48.8096 71.2337C49.911 72.5611 51.3748 73.5394 53.0225 74.0494C52.9535 75.0059 52.8306 76.2474 52.6117 77.5488ZM53.2114 72.1963C52.6597 71.8364 52.1679 71.0838 51.8321 70.3431C51.7016 70.067 51.5924 69.7813 51.5053 69.4885C51.2594 68.6609 51.6012 68.1062 51.9131 68.0132C52.2759 67.9053 52.7826 68.0942 53.0135 68.8708C53.1088 69.2185 53.175 69.5736 53.2114 69.9323C53.2991 70.6845 53.2981 71.4443 53.2084 72.1963H53.2114ZM23.0854 63.4313C22.6236 61.8781 21.6611 60.9215 18.2878 61.932C15.2893 62.8316 9.32823 66.5079 2.48264 68.1451C2.31291 68.1797 2.15403 68.2548 2.01951 68.3639C1.88498 68.473 1.77877 68.613 1.7099 68.7719C1.64103 68.9309 1.61153 69.1041 1.6239 69.2769C1.63628 69.4496 1.69016 69.6169 1.78098 69.7644C2.24875 70.583 3.20528 71.1437 4.44666 71.3417C4.19778 72.3882 3.93991 73.5546 3.67604 74.799C2.99238 78.0225 2.28473 81.7648 1.67304 85.2492C0.911416 89.5791 0.302719 93.5163 0.0808289 95.5763C0.0448468 95.9242 0.0178607 96.221 0.00286815 96.4549C-0.0217087 97.4827 0.111783 98.5082 0.398671 99.4955C0.68497 100.545 1.27924 101.485 2.10482 102.194C3.00438 102.89 3.65205 102.467 3.754 101.481C4.12582 98.6739 4.32372 97.0516 4.84846 94.152C5.25925 91.8641 5.87695 88.7755 6.94742 83.6749C7.49314 81.0541 8.14682 77.8996 8.97741 74.0464C9.03138 73.7465 9.07936 73.4467 9.11834 73.1738C9.25103 72.3228 9.33313 71.4647 9.36421 70.604C11.4812 69.7524 15.0614 67.7313 18.1229 66.4839C17.823 67.7853 17.4842 69.2456 17.1543 70.7869C16.4287 74.1453 15.6821 77.8966 15.0554 81.267C14.7315 82.9912 14.4317 84.6164 14.1738 86.0378C13.826 88.2777 13.5741 90.3168 13.5112 91.5792C13.4602 93.1175 13.5621 94.215 13.793 94.9946C14.0884 95.9411 14.6698 96.7729 15.4572 97.3755C16.3567 98.1221 17.1094 97.6184 17.2263 96.6798C17.5262 94.4669 17.805 92.2989 18.1259 90.1968C18.4257 88.1758 18.7615 86.2117 19.1423 84.3286C19.4992 82.5714 19.817 81.1231 20.1379 79.7467C20.8185 76.7901 21.5022 74.1573 22.5786 69.4915C22.6026 69.3746 22.6296 69.2606 22.6536 69.1437C23.1274 66.8887 23.4782 64.7657 23.0854 63.4313Z" fill="url(#paint2_linear)"/>
<defs>
<linearGradient id="paint0_linear" x1="59.2386" y1="-16.1785" x2="81.2217" y2="25.9693" gradientUnits="userSpaceOnUse">
<stop offset="0.16" stop-color="#CA4524"/>
<stop offset="0.87" stop-color="#F0AB52"/>
</linearGradient>
<linearGradient id="paint1_linear" x1="108.081" y1="73.1108" x2="89.7774" y2="25.5474" gradientUnits="userSpaceOnUse">
<stop stop-color="#727272"/>
<stop offset="1" stop-color="#D8D8D8"/>
</linearGradient>
<linearGradient id="paint2_linear" x1="77.6103" y1="32.9716" x2="97.4855" y2="95.1862" gradientUnits="userSpaceOnUse">
<stop stop-color="#CA4524"/>
<stop offset="0.78" stop-color="#F0AB52"/>
</linearGradient>
</defs>
</svg>
