<svg xmlns="http://www.w3.org/2000/svg" xmlns:xlink="http://www.w3.org/1999/xlink" width="22" height="21" viewBox="0 0 22 21"><defs><path id="kuhda" d="M1029 55.5c0-5.799 4.701-10.5 10.5-10.5h1c5.799 0 10.5 4.701 10.5 10.5s-4.701 10.5-10.5 10.5h-1c-5.799 0-10.5-4.701-10.5-10.5z"/><path id="kuhdb" d="M1040 48a7 7 0 1 1 0 14 7 7 0 0 1 0-14zm0 .875c-3.377 0-6.125 2.746-6.125 6.12s2.748 6.12 6.125 6.12 6.125-2.746 6.125-6.12-2.748-6.12-6.125-6.12z"/></defs><g><g transform="translate(-1029 -45)"><use fill="#f15d2b" xlink:href="#kuhda"/></g><g transform="translate(-1029 -45)"><use fill="#fff" xlink:href="#kuhdb"/></g></g></svg>