<?xml version="1.0" encoding="utf-8"?><svg xmlns="http://www.w3.org/2000/svg" xmlns:xlink="http://www.w3.org/1999/xlink"><symbol viewBox="0 0 56 43" id="problems1" xmlns="http://www.w3.org/2000/svg"><path d="M54.14 11.733L31.817.728c-1.925-.97-5.196-.97-7.12 0L1.86 11.733C.257 12.51 0 13.61 0 14.193s.257 1.618 1.86 2.46l1.86.906v10.358a3.171 3.171 0 0 0-1.988 2.913c0 1.295.834 2.46 1.924 2.913L.77 43h8.082l-2.886-9.257C7.12 33.29 7.89 32.125 7.89 30.83c0-1.36-.834-2.46-1.989-2.913V18.66l3.4 1.683v13.465c0 .194.064.388.193.582.32.389 6.286 8.61 18.474 8.61s18.153-8.286 18.41-8.61a1.05 1.05 0 0 0 .192-.582v-13.4l7.57-3.755c1.603-.777 1.86-1.877 1.86-2.46-.064-.582-.257-1.683-1.86-2.46zm-9.622 21.751c-1.027 1.295-6.543 7.51-16.55 7.51-10.007 0-15.524-6.215-16.55-7.51V21.249l13.278 6.409c.963.453 2.246.712 3.528.712 1.348 0 2.63-.259 3.593-.777l12.7-6.28v12.171zm8.724-18.644l-7.698 3.82c-.32 0-.577.13-.705.388l-13.92 6.797c-1.347.712-3.977.712-5.389 0L8.403 17.56l19.693-2.33c.578-.065.962-.583.898-1.1-.064-.583-.577-.972-1.09-.907L5.068 15.941l-2.31-1.1c-.577-.26-.705-.583-.705-.583 0-.065.128-.324.705-.583l22.836-11.07c.706-.323 1.668-.517 2.63-.517 1.027 0 2.053.194 2.695.518L53.242 13.61c.577.258.705.517.705.647 0 0-.192.324-.705.582z"/><defs><linearGradient id="aa" x1="28" y1="-.104" x2="28" y2="42.873" gradientUnits="userSpaceOnUse"><stop stop-color="#C83F21"/><stop offset="1" stop-color="#F0AB52"/></linearGradient></defs></symbol><symbol viewBox="0 0 56 52" id="problems2" xmlns="http://www.w3.org/2000/svg"><path d="M55.404 32.866a3.433 3.433 0 0 0-4.78-.937l-7.147 4.847-.02-15.088 2.482 2.357a2.807 2.807 0 0 0 1.94.777h.004a2.83 2.83 0 0 0 2.066-.91 2.88 2.88 0 0 0 .766-2.06 2.874 2.874 0 0 0-.896-2.004l-4.707-4.47a.792.792 0 0 0-1.13.038.818.818 0 0 0 .037 1.145l4.707 4.47c.241.228.38.54.39.874.011.335-.107.655-.333.9a1.22 1.22 0 0 1-.903.397h-.002c-.315 0-.615-.12-.846-.34L28.342 5.117a.792.792 0 0 0-1.095.001L8.606 22.917a1.224 1.224 0 0 1-1.751-.053 1.256 1.256 0 0 1-.337-.899c.01-.335.148-.646.389-.876L26.942 1.96a1.228 1.228 0 0 1 1.696-.002l11.721 11.129a.792.792 0 0 0 1.13-.037.818.818 0 0 0-.037-1.146L29.732.775a2.814 2.814 0 0 0-3.886.006l-6.414 6.123-.002-1.092a1.29 1.29 0 0 0-.373-.91 1.255 1.255 0 0 0-.898-.377h-.002l-4.588.007c-.34 0-.659.135-.899.378a1.29 1.29 0 0 0-.37.912l.012 7.88L5.81 19.91a2.874 2.874 0 0 0-.89 2.007 2.878 2.878 0 0 0 .77 2.058 2.802 2.802 0 0 0 2.068.904c.725 0 1.412-.276 1.943-.783l2.477-2.365.01 7.127a16.62 16.62 0 0 0-2.427-.18H8.394v-.486c0-1.63-1.309-2.958-2.918-2.958H2.918C1.31 25.234 0 26.561 0 28.192v12.695c0 .447.358.81.8.81.44 0 .799-.363.799-.81V28.192a1.33 1.33 0 0 1 1.32-1.337h2.557c.727 0 1.32.6 1.32 1.337v19.185a1.33 1.33 0 0 1-1.32 1.337H2.918c-.727 0-1.32-.6-1.32-1.337v-1.418a.805.805 0 0 0-.799-.81.805.805 0 0 0-.799.81v1.418c0 1.63 1.31 2.957 2.918 2.957h2.558c1.609 0 2.918-1.326 2.918-2.957v-.11L20.1 51.759a5.515 5.515 0 0 0 1.586.24c.271.001.541-.02.808-.063l17.203-2.514.012-.001a8.368 8.368 0 0 0 4.02-1.838l11.113-10.13a3.542 3.542 0 0 0 .562-4.587zM17.832 6.146l.004 2.282-3.928 3.75-.01-6.027 3.934-.005zm9.965.673l14.058 13.349.025 17.691-2.263 1.536-2.397-.137-.063-.645c-.223-2.272-1.878-4.1-4.067-4.536l-.014-10.525a1.458 1.458 0 0 0-1.447-1.465h-.002l-7.618.011c-.387 0-.75.154-1.022.431a1.466 1.466 0 0 0-.423 1.038l.013 9.176a15.07 15.07 0 0 1-4.297-1.726c-.168-.1-.338-.195-.51-.289-.066-.037-.134-.07-.201-.106l-.313-.164c-.084-.042-.169-.082-.253-.122l-.27-.129c-.091-.042-.184-.082-.277-.123l-.254-.11a17.71 17.71 0 0 0-1.667-.595l-.255-.075c-.111-.031-.223-.06-.335-.09l-.157-.042-.012-8.965 14.02-13.388zm3.695 27.055l-6.686-.78-.63-.074-.013-9.302 7.315-.01.014 10.166zm22.285 2.37L42.674 46.365a6.777 6.777 0 0 1-3.211 1.455l-17.196 2.512-.01.002-.012.002a3.762 3.762 0 0 1-1.613-.105L8.394 45.534V30.298h1.368a15.07 15.07 0 0 1 3.986.537l.036.01c.138.039.275.079.411.12l.074.023c.145.046.29.093.434.143l.045.016a15.08 15.08 0 0 1 1.801.765l.05.024c.134.068.267.139.4.211l.075.041c.134.075.267.15.399.228a16.643 16.643 0 0 0 6.175 2.174l8.956 1.045a3.485 3.485 0 0 1 2.855 2.549c.051.19.087.387.107.59l.036.362-16.785-1.49a.803.803 0 0 0-.866.736.807.807 0 0 0 .726.878l17.746 1.575h.012l.013.002 3.346.19c.015.002.03.002.045.002.016 0 .032-.003.047-.004.018 0 .036-.002.054-.004.024-.003.047-.008.07-.013.017-.004.034-.007.05-.012.026-.007.05-.017.075-.027l.04-.016a.787.787 0 0 0 .109-.061l2.84-1.927 8.39-5.69a1.844 1.844 0 0 1 2.568.502 1.904 1.904 0 0 1-.305 2.467z"/><defs><linearGradient id="ba" x1="28" y1="-.125" x2="28" y2="51.846" gradientUnits="userSpaceOnUse"><stop stop-color="#C83F21"/><stop offset="1" stop-color="#F0AB52"/></linearGradient></defs></symbol><symbol viewBox="0 0 56 56" id="problems3" xmlns="http://www.w3.org/2000/svg"><path fill-rule="evenodd" clip-rule="evenodd" d="M56 16.258v7.225h-5.42v2.829l3.614-1.023H56v19.87H45.4l-.437-1.395-3.353 2.684.299.398c.35.466.543 1.043.543 1.626v.3a2.713 2.713 0 0 1-2.71 2.71 2.69 2.69 0 0 1-1.003-.211 2.707 2.707 0 0 1-2.61 2.018 2.69 2.69 0 0 1-1.003-.212 2.707 2.707 0 0 1-2.61 2.018 2.71 2.71 0 0 1-1.979-.885A2.705 2.705 0 0 1 28 55.998h-.155a2.69 2.69 0 0 1-1.916-.794l-.669-.668a2.826 2.826 0 0 1-1.667.559 2.814 2.814 0 0 1-2.677-1.979 2.81 2.81 0 0 1-.936.173 2.817 2.817 0 0 1-2.809-2.72 2.816 2.816 0 0 1-2.72-2.809c0-.411.095-.804.26-1.167l-2.531-.66-3.817-2.289-.473 1.516H0V25.29h1.965l3.454 1.256v-3.063H0v-7.226h5.42V9.59L14.05 0h36.53v16.258H56zM14.452 9.032V2.254L8.35 9.032h6.102zm1.806 1.806H7.226v5.42h5.42v-3.495l10.66 7.107-10.66 7.108v-3.495h-5.42v3.72l5.635 2.049-.638 2.042 4.248 2.124h6.361c.963 0 1.9.229 2.76.645l1.932-.966a6.292 6.292 0 0 1 2.407-.653l11.262-.751-.782-2.503 8.363-2.367v-3.34h-5.42v3.495l-10.66-7.108 10.66-7.107v3.495h5.42V1.806H16.258v9.032zM1.806 18.064v3.613h12.646V23.6l5.597-3.73-5.597-3.732v1.925H1.806zm0 25.29h4.756l4.061-12.995-8.817-3.205v16.2zm7.112-1.484l4.077 2.446 2.986.747 5.195-5.195c1.116-1.114 2.943-1.34 4.296-.53l3.392 2.036a1.22 1.22 0 0 0 1.845-1.045v-.316c0-.422-.213-.81-.57-1.033l-4.913-3.07a4.515 4.515 0 0 0-2.393-.685h-6.788l-4.367-2.184-2.76 8.83zM28 54.192a.904.904 0 0 0 .903-.903v-.155a.9.9 0 0 0-.264-.64l-.748-.747a.91.91 0 0 0-.639-.265h-.155a.904.904 0 0 0-.904.903v.155c0 .241.095.468.265.64l.748.747a.91.91 0 0 0 .639.265H28zm4.516-.903a.904.904 0 0 0 .903-.904v-.3a.907.907 0 0 0-.18-.542l-1.807-2.41a.904.904 0 0 0-1.626.542v.302c0 .194.064.386.181.542l1.807 2.408c.17.227.44.362.722.362zm3.613-1.807a.904.904 0 0 0 .903-.903v-.3a.907.907 0 0 0-.18-.543l-1.807-2.409a.904.904 0 0 0-1.626.542v.301c0 .194.064.387.181.542l1.807 2.409c.17.227.44.361.722.361zm3.613-1.806a.904.904 0 0 0 .903-.903v-.301a.907.907 0 0 0-.18-.542l-1.807-2.409a.904.904 0 0 0-1.626.542v.3c0 .195.064.388.181.543l1.806 2.409c.17.226.44.36.723.36zm.361-5.239l.423.565 3.86-3.087-2.64-8.447-11.696.78a4.48 4.48 0 0 0-1.718.466l-.896.449 3.658 2.285a3.007 3.007 0 0 1 1.422 2.565v.316a3.029 3.029 0 0 1-4.582 2.593l-3.392-2.034a1.742 1.742 0 0 0-2.089.257l-5.899 5.899a1.014 1.014 0 0 0 1.432 1.432l4.86-4.858 1.276 1.277-4.858 4.858a1.014 1.014 0 0 0 1.433 1.432l4.858-4.857 1.277 1.277-3.955 3.955a1.014 1.014 0 0 0 1.433 1.432l.11-.11-.008-.066a2.025 2.025 0 0 1-.025-.276v-.155a2.713 2.713 0 0 1 2.71-2.71h.155c.259 0 .507.049.748.118v-.117a2.713 2.713 0 0 1 2.71-2.71c.35 0 .686.084 1.003.211a2.707 2.707 0 0 1 2.61-2.017c.35 0 .686.084 1.003.211a2.707 2.707 0 0 1 2.61-2.018 2.72 2.72 0 0 1 2.167 1.084zm14.09-1.084V27.132L42.687 30.42l4.042 12.933h7.465zM41.549 23.601v-1.924h12.645v-3.613H41.549v-1.925l-5.597 3.731 5.597 3.731zm-11.743-5.538c0-.996-.81-1.806-1.806-1.806-.997 0-1.807.81-1.807 1.806 0 .997.81 1.807 1.806 1.807a3.616 3.616 0 0 1 3.613 3.612c0 1.678-1.155 3.081-2.71 3.485V28.9h-1.806v-1.934a3.608 3.608 0 0 1-2.71-3.485h1.807c0 .997.81 1.807 1.806 1.807.997 0 1.807-.81 1.807-1.807 0-.996-.81-1.806-1.806-1.806a3.616 3.616 0 0 1-3.613-3.613 3.608 3.608 0 0 1 2.71-3.484v-1.935h1.806v1.935c1.554.403 2.71 1.806 2.71 3.484h-1.807zM18.063 3.613h28.902v1.806H18.063V3.612zm28.902 3.613H18.063v1.806h28.902V7.226z"/><defs><linearGradient id="ca" x1="28" y1="-.135" x2="28" y2="55.832" gradientUnits="userSpaceOnUse"><stop stop-color="#C83F21"/><stop offset="1" stop-color="#F0AB52"/></linearGradient></defs></symbol><symbol viewBox="0 0 56 62" id="problems4" xmlns="http://www.w3.org/2000/svg"><path fill-rule="evenodd" clip-rule="evenodd" d="M29.992 29.721l4.611 1.785a.91.91 0 0 1-.651 1.695l-4.264-1.65-3.695 5.559a2.673 2.673 0 0 1-3.625.806l.794 18.283a.907.907 0 0 1-.906.947.907.907 0 0 1-.903-.868l-.736-16.952h-2.058l-.735 16.952a.907.907 0 1 1-1.81-.08l.794-18.282a2.661 2.661 0 0 1-1.656.38 2.674 2.674 0 0 1-1.97-1.186l-3.694-5.56-4.84 1.873a4.43 4.43 0 0 0-1.757 1.24l3.319 3.33a6.231 6.231 0 0 1 1.828 4.427v13.818a.907.907 0 0 1-.905.908.907.907 0 0 1-.905-.908V42.42a4.424 4.424 0 0 0-1.299-3.144l-2.94-2.95a4.455 4.455 0 0 0-.175 1.424l.737 18.452a.907.907 0 0 1-.905.944.907.907 0 0 1-.904-.872L.005 37.822a6.261 6.261 0 0 1 3.992-6.094l5.187-2.007 2.646-2.655a.901.901 0 0 1 .625-.265v-2.17a9.801 9.801 0 0 1-2.495-4.94l-.003-.003a2.661 2.661 0 0 1-.693-.05c-1.244-.256-2.147-1.415-2.147-2.756v-.685c0-1.12.628-2.098 1.561-2.536a23.812 23.812 0 0 1-.672-5.586c0-4.4 3.137-5.195 4.237-5.339.782-.65 3.33-2.492 7.296-2.707 4.258-.23 7.607.919 9.684 3.325 2.155 2.495 2.84 6.23 1.99 10.816.523.51.845 1.231.845 2.017v.695c0 1.341-.903 2.5-2.147 2.755-.23.048-.463.065-.693.051l-.003.003a9.8 9.8 0 0 1-2.494 4.94v2.17a.901.901 0 0 1 .624.265l2.647 2.655zM9.86 17.874c.889-.065 1.714.583 1.877 1.476a7.985 7.985 0 0 0 7.85 6.558 7.985 7.985 0 0 0 7.849-6.558c.163-.893.989-1.541 1.877-1.476a.85.85 0 0 0 .234-.016c.399-.082.7-.501.7-.976v-.695c0-.455-.306-.86-.712-.94-.135-.027-.445-.015-.73.053a1.516 1.516 0 0 1-1.754-.902l-.705-1.7c-2.439.494-9.933 1.548-13.697-3.152a.91.91 0 0 1 .139-1.277.903.903 0 0 1 1.273.14c3.71 4.633 12.51 2.38 12.598 2.357a.905.905 0 0 1 1.066.53l.907 2.186c.3-.053.602-.073.874-.06.633-3.828.066-6.888-1.653-8.88-1.697-1.965-4.538-2.9-8.218-2.7-4.021.219-6.37 2.406-6.392 2.428a.912.912 0 0 1-.625.251c-.024.001-.753.025-1.443.463-.902.572-1.359 1.612-1.359 3.091 0 2.485.45 4.52.693 5.436.39.107.755.302 1.063.574a5.17 5.17 0 0 0 1.005-1.17.904.904 0 0 1 1.25-.28.91.91 0 0 1 .28 1.253 6.912 6.912 0 0 1-1.854 1.964 1.287 1.287 0 0 1-1.11.18 1.288 1.288 0 0 1-.65-.457.87.87 0 0 0-.858-.33c-.397.07-.708.489-.708.953v.684c0 .475.3.894.7.976a.86.86 0 0 0 .233.016zm5.469 18.615a.87.87 0 0 0 .704-.253L18.264 34l-5.752-5.048-1.546 1.55 3.723 5.6c.146.22.38.36.64.387zm3.367-.356l-.06 1.377h1.9l-.06-1.377-.89-.893-.89.893zm-4.432-8.056l5.322 4.672 5.323-4.672v-1.93a9.743 9.743 0 0 1-5.323 1.577 9.743 9.743 0 0 1-5.322-1.578v1.931zm9.58 8.412a.87.87 0 0 0 .642-.387l3.722-5.6-1.546-1.55L20.913 34l2.228 2.236a.86.86 0 0 0 .704.253zm28.347 2.34c2.1 0 3.808 1.713 3.808 3.82v2.696c0 .994-.334 1.949-.968 2.831v10.102A3.72 3.72 0 0 1 51.322 62H29.837a3.72 3.72 0 0 1-3.71-3.721V48.175c-.634-.882-.968-1.837-.968-2.831v-2.696a3.819 3.819 0 0 1 3.808-3.82h5.869v-2.005a2.848 2.848 0 0 1 2.84-2.85h5.807a2.848 2.848 0 0 1 2.84 2.85v2.004h5.869zM37.676 35.79c-.568 0-1.03.464-1.03 1.033v2.004h7.866v-2.004c0-.57-.462-1.033-1.03-1.033h-5.806zm12.518 13.814c2.525-1.155 3.995-2.701 3.995-4.26V42.65a2.003 2.003 0 0 0-1.998-2.004H28.967a2.003 2.003 0 0 0-1.997 2.004v2.696c0 1.559 1.47 3.105 3.995 4.26v-.161c0-.502.405-.909.905-.909h3.87c.5 0 .906.407.906.909v1.733a28.338 28.338 0 0 0 4.872.256.903.903 0 0 1 .934.879.907.907 0 0 1-.876.936A30.208 30.208 0 0 1 36.573 53a2.847 2.847 0 0 1-2.767 2.205 2.848 2.848 0 0 1-2.841-2.85v-.776c-1.176-.472-2.19-1.021-3.028-1.63v8.33c0 1.05.852 1.905 1.9 1.905h21.485c1.048 0 1.9-.855 1.9-1.905v-8.33c-.838.61-1.853 1.158-3.028 1.63v.777a2.848 2.848 0 0 1-2.84 2.85 2.848 2.848 0 0 1-2.842-2.85v-2.912c0-.502.406-.909.906-.909h3.87c.5 0 .906.407.906.909v.16zm-1.81 2.75v-2.003h-2.06v2.004c0 .57.462 1.033 1.03 1.033.567 0 1.03-.464 1.03-1.034zm-15.608-2.003v2.004c0 .57.462 1.033 1.03 1.033.567 0 1.03-.464 1.03-1.034v-2.003h-2.06z"/><defs><linearGradient id="da" x1="28" y1="-.149" x2="28" y2="61.816" gradientUnits="userSpaceOnUse"><stop stop-color="#C83F21"/><stop offset="1" stop-color="#F0AB52"/></linearGradient></defs></symbol><symbol viewBox="0 0 56 56" id="problems5" xmlns="http://www.w3.org/2000/svg"><path fill-rule="evenodd" clip-rule="evenodd" d="M55.643 14.38L36.238.165a.858.858 0 0 0-1.207.194l-8.463 11.756-1.165-7.406a.873.873 0 0 0-.346-.57.86.86 0 0 0-.644-.155L.73 7.776a.871.871 0 0 0-.718.998L4.636 38.18c.036.228.16.433.346.569a.86.86 0 0 0 .644.155l5.442-.87v9.358c0 .482.387.872.865.872h23.98c.478 0 .865-.39.865-.872v-2.46a11 11 0 0 0 1.674-1.189l2.154 2.174-.692.699a.878.878 0 0 0 0 1.233l7.826 7.895a.858.858 0 0 0 1.223 0l2.609-2.632a.876.876 0 0 0 0-1.233l-7.827-7.895a.861.861 0 0 0-1.223 0l-.693.699-2.154-2.173a11.08 11.08 0 0 0 2.637-7.213c0-.286-.012-.576-.034-.865l13.557-18.834a.877.877 0 0 0-.192-1.218zm-12.51 31.453l6.604 6.662-1.386 1.398-6.603-6.662 1.386-1.398zM11.069 17.62v3.575l-2.56.41a.871.871 0 0 0-.719.998.867.867 0 0 0 .99.724l2.29-.366v5.77l-1.405.224a.871.871 0 0 0-.718.999.867.867 0 0 0 .99.724l1.132-.18v5.769l-4.86.778L1.855 9.363l21.977-3.518 1.3 8.267-1.896 2.635H11.933a.869.869 0 0 0-.865.872zm23.98 28.9h-22.25V18.49h22.25v6.36a10.82 10.82 0 0 0-4.468-.636.864.864 0 0 0-.2-.025H17.466a.869.869 0 0 0-.865.872c0 .482.387.872.865.872h7.91a11.07 11.07 0 0 0-2.515 2.23 11.029 11.029 0 0 0-1.955 3.469h-3.44a.869.869 0 0 0-.865.872c0 .482.387.872.865.872h2.99a11.23 11.23 0 0 0-.166 1.92c0 1.309.22 2.575.654 3.78h-3.478a.869.869 0 0 0-.865.871c0 .482.387.873.865.873h4.283c1.963 3.456 5.575 5.582 9.552 5.582a10.83 10.83 0 0 0 3.747-.66v.776zm2.816-4.603a9.292 9.292 0 0 1-2.344 1.722 9.116 9.116 0 0 1-4.218 1.02c-3.505 0-6.673-1.957-8.27-5.107a9.325 9.325 0 0 1-1.011-4.255c0-.864.118-1.724.35-2.553a9.307 9.307 0 0 1 1.816-3.458 9.232 9.232 0 0 1 7.115-3.35c1.484 0 2.903.343 4.218 1.021a9.33 9.33 0 0 1 5.008 7.321v.002c.036.34.055.681.055 1.017 0 2.5-.966 4.852-2.719 6.62zm3.977-9.846a11.051 11.051 0 0 0-5.063-6.408v-4.548l4.7 3.443a.856.856 0 0 0 1.208-.194.877.877 0 0 0-.191-1.218l-5.717-4.187V17.62a.868.868 0 0 0-.865-.872H33.76l-1.713-1.255a.86.86 0 0 0-1.208.193.878.878 0 0 0 .029 1.062h-5.496l1.369-1.902 9.181-12.754 18.005 13.187L41.84 32.07zm-5.46-22.6l10.448 7.652a.877.877 0 0 1 .191 1.218.861.861 0 0 1-1.207.194L35.365 10.88a.877.877 0 0 1-.192-1.219.86.86 0 0 1 1.208-.193zm-16.278 2.74a.865.865 0 0 1 .99.725.871.871 0 0 1-.72.999l-12.751 2.04a.867.867 0 0 1-.99-.725.871.871 0 0 1 .719-.997l12.752-2.041zm3.877 23.087c0-4.072 3.284-7.385 7.32-7.385 4.037 0 7.321 3.313 7.321 7.385 0 4.071-3.284 7.384-7.32 7.384-4.037 0-7.321-3.313-7.321-7.384zm1.73 0c0 3.11 2.507 5.64 5.59 5.64 3.083 0 5.592-2.53 5.592-5.64s-2.508-5.64-5.592-5.64c-3.082 0-5.59 2.53-5.59 5.64zm8.047-.152a.86.86 0 0 0-1.223 0L30.23 37.47a.877.877 0 0 0 0 1.234.859.859 0 0 0 1.223 0l2.305-2.326a.877.877 0 0 0 0-1.233zm-2.146-3.722a.86.86 0 0 1 1.222 0 .877.877 0 0 1 0 1.234l-2.535 2.557a.858.858 0 0 1-1.223 0 .877.877 0 0 1 0-1.233l2.535-2.558z"/><defs><linearGradient id="ea" x1="28" x2="28" y2="55.998" gradientUnits="userSpaceOnUse"><stop stop-color="#C83F21"/><stop offset="1" stop-color="#F0AB52"/></linearGradient></defs></symbol><symbol viewBox="0 0 56 56" id="problems6" xmlns="http://www.w3.org/2000/svg"><path d="M55.966 11.221c-.13-.468-.611-.758-1.07-.624-.066.023-1.857.535-2.337.691-.7.223-1.29.98-1.464 1.204-.022.022-.022.044-.044.044-.022.045-2.927 4.748-4.5 7.2-1.42 2.184-3.954 3.12-3.976 3.12h-.021c-1.9.735-4.413 1.694-6.532 2.474a92.61 92.61 0 0 1-1.638.602c-1.245.445-2.141.757-2.381.824-.525.112-.809.178-1.29-.847-.065-.156-.13-.78 1.705-2.741.087-.09.174-.178.24-.268l.262-.267c.131-.112.502-.312.961-.535a33.334 33.334 0 0 1 1.682-.758c.983-.446 1.835-.825 2.294-1.114 1.464-.959.961-3.767.961-3.811-.087-.402-.197-1.026-3.997-2.853-.809-.38-1.704-.201-1.792-.179-.022 0-.043 0-.087.023-.284.089-2.862.936-3.56 1.248-.656.29-1.355 1.047-2.273 2.073-.174.2-.35.4-.524.557-.983 1.07-.917 2.273-.917 2.407v.089l.218 1.203a7.79 7.79 0 0 0-2.01 1.494c-.502-1.516-1.223-3.61-1.376-4.101-.065-.2.087-.691.284-1.003.306-.446 4.588-6.53 5.702-7.935.96-1.203 2.01-1.47 2.053-1.493.022 0 .022 0 .044-.022l21.56-6.174a.897.897 0 0 0 .612-1.092c-.131-.468-.612-.758-1.07-.624L30.124 6.207c-.24.066-1.726.49-2.993 2.095-1.201 1.493-5.614 7.8-5.789 8.046 0 .022-.021.022-.021.044-.153.223-.83 1.449-.46 2.563a576.86 576.86 0 0 1 1.77 5.283 7.46 7.46 0 0 0-.808 3.41 7.477 7.477 0 0 0 3.058 6.04c-.218.044-.393.111-.459.133-.72.246-11.119 3.923-12.233 4.436-1.005.468-2.097 1.805-2.6 2.452-.108 0-.24 0-.349-.023-.153-.022-.306 0-.458.023v-1.672a.885.885 0 0 0-.874-.892H.874a.885.885 0 0 0-.874.892v16.07c0 .49.393.891.874.891h7.034c.48 0 .874-.401.874-.891v-.959c2.446.045 9.371.134 12.604.134h1.005c2.447-.022 3.539-.423 5.723-1.204.677-.245 1.442-.512 2.381-.847 3.867-1.292 5.046-2.496 5.309-2.83.109-.134.83-.914 2.577-2.83 1.508-1.65 3.692-4.436 3.845-5.26.24-1.293-1.791-2.029-2.512-2.185-1.114-.245-2.338.111-3.19.424-.742.29-1.441 1.092-2.512 2.384-.327.402-.633.78-.917 1.07-.655.713-3.78 1.56-6.706 1.516-2.032-.023-4.042-1.583-4.675-2.229 0-.045 0-.111.021-.178.263-.156.918-.424 1.53-.691.458-.2 1.005-.424 1.616-.691 2.097-.936 2.643-2.586 2.927-3.477.044-.112.066-.2.11-.29.262-.669.13-1.404-.219-2.006.459.09.94.134 1.42.134 4.02 0 7.274-3.321 7.274-7.422 0-.2 0-.401-.022-.602a441.35 441.35 0 0 0 6.794-2.563c.24-.09 3.124-1.181 4.85-3.811 1.529-2.363 4.26-6.776 4.522-7.2.153-.2.437-.49.546-.534.48-.156 2.293-.669 2.293-.691.46-.067.721-.557.59-1.048zM7.034 54.215H1.748V40.04h5.286v14.175zm19.267-17.897a4.262 4.262 0 0 0-.131.4c-.24.759-.59 1.784-1.966 2.408-.59.268-1.114.49-1.573.691-1.595.669-2.14.914-2.38 1.404-.263.513-.503 1.605.24 2.34.109.112 2.73 2.742 5.92 2.786 2.424.023 6.64-.601 7.995-2.072.305-.335.655-.758.983-1.137.546-.646 1.441-1.739 1.79-1.872.875-.335 1.683-.468 2.229-.357.371.067.72.245.961.379-.48.758-1.682 2.407-3.233 4.079-1.944 2.117-2.6 2.853-2.621 2.875l-.044.044c-.11.112-1.092 1.115-4.478 2.252-.961.334-1.748.601-2.425.847-2.14.757-3.015 1.092-5.155 1.114-2.49.022-10.879-.09-13.61-.134v-9.673a.923.923 0 0 1 .328-.111c.459.044.94 0 .983 0a.88.88 0 0 0 .655-.38c.415-.579 1.464-1.916 2.163-2.228.896-.401 9.044-3.299 12.102-4.39.022 0 .044-.023.044-.023.109-.045.48-.156.72-.022.35.156.569.602.503.78zm1.136-16.739c0-.111.044-.58.437-1.003.175-.178.35-.378.546-.601.502-.558 1.333-1.494 1.682-1.65.503-.223 2.534-.913 3.342-1.159.131-.022.437-.044.656.045 1.616.78 2.73 1.449 3.058 1.738.087.691-.022 1.65-.218 1.806-.328.2-1.224.624-2.032.958-1.267.557-2.119.959-2.643 1.27a7.003 7.003 0 0 0-3.124-.713c-.524 0-1.027.067-1.53.156l-.174-.847zm1.682 13.774c-3.036 0-5.527-2.54-5.527-5.639 0-3.12 2.49-5.638 5.527-5.638.59 0 1.158.089 1.704.267-1.049 1.16-2.36 2.875-1.682 4.346.612 1.293 1.376 1.917 2.468 1.917.219 0 .48-.022.721-.09.284-.044 1.158-.356 2.294-.78 0 3.099-2.468 5.617-5.505 5.617z"/><defs><linearGradient id="fa" x1="28" y1="-.135" x2="28" y2="55.832" gradientUnits="userSpaceOnUse"><stop stop-color="#C83F21"/><stop offset="1" stop-color="#F0AB52"/></linearGradient></defs></symbol><symbol viewBox="0 0 121 120" id="top-trigger1" xmlns="http://www.w3.org/2000/svg"><path d="M104.27 17.063c.337 0 .643-.123.877-.36a1.242 1.242 0 0 0 0-1.747l-2.978-3.002V5.736c0-.689-.55-1.244-1.234-1.244-.683 0-1.234.555-1.234 1.244v6.733c0 .328.123.637.357.873l3.335 3.361c.235.237.551.36.877.36z"/><path fill-rule="evenodd" clip-rule="evenodd" d="M112.356 7.689a12.471 12.471 0 0 0-2.682-4.04A12.241 12.241 0 0 0 100.934 0a12.223 12.223 0 0 0-8.74 3.649 12.42 12.42 0 0 0-3.62 8.809 12.42 12.42 0 0 0 3.62 8.81 12.223 12.223 0 0 0 8.74 3.648c3.304 0 6.405-1.295 8.74-3.649a12.42 12.42 0 0 0 3.62-8.809c0-1.665-.326-3.279-.938-4.77zm-11.422 14.75c-5.456 0-9.892-4.471-9.892-9.97 0-5.5 4.436-9.971 9.892-9.971 5.456 0 9.892 4.471 9.892 9.97 0 5.49-4.436 9.97-9.892 9.97z"/><path d="M13.051 12.457a3.596 3.596 0 0 1-1.04 2.528 3.529 3.529 0 0 1-2.518 1.048 3.55 3.55 0 0 1-3.446-2.723 3.45 3.45 0 0 1-.102-.863c0-.987.398-1.88 1.04-2.538A3.523 3.523 0 0 1 9.493 8.86c.979 0 1.866.4 2.518 1.048a3.665 3.665 0 0 1 1.04 2.548z"/><path fill-rule="evenodd" clip-rule="evenodd" d="M18.336 51.24c-4.436 0-8.27-3.032-9.33-7.36a9.782 9.782 0 0 1-.276-2.322c0-2.59 1-5.016 2.815-6.846a9.495 9.495 0 0 1 6.791-2.837 9.496 9.496 0 0 1 6.792 2.837 9.666 9.666 0 0 1 2.815 6.846 9.677 9.677 0 0 1-2.815 6.846 9.513 9.513 0 0 1-6.792 2.836zm0-16.6c-1.835 0-3.548.72-4.844 2.025a6.894 6.894 0 0 0-1.805 6.537 6.844 6.844 0 0 0 6.66 5.253 6.79 6.79 0 0 0 4.844-2.025 6.88 6.88 0 0 0 1.866-3.495 7.04 7.04 0 0 0 .143-1.388c0-1.85-.714-3.577-2.01-4.882a6.827 6.827 0 0 0-4.854-2.025zM55.419 51.24c-4.549 0-8.505-3.258-9.413-7.74a9.587 9.587 0 0 1-.194-1.942c0-2.59 1-5.016 2.815-6.846a9.513 9.513 0 0 1 6.791-2.837 9.495 9.495 0 0 1 6.792 2.837 9.648 9.648 0 0 1 2.815 6.846 9.677 9.677 0 0 1-2.815 6.846 9.496 9.496 0 0 1-6.791 2.836zm0-16.6c-1.836 0-3.55.72-4.844 2.025a6.895 6.895 0 0 0-1.867 6.27c.653 3.197 3.478 5.52 6.72 5.52 1.836 0 3.55-.72 4.845-2.025a6.844 6.844 0 0 0 1.866-3.495 7.04 7.04 0 0 0 .143-1.388c0-1.85-.714-3.577-2.01-4.882a6.791 6.791 0 0 0-4.853-2.025zM11.34 84.725h13.952c1.642 0 2.978-1.346 2.968-3.011v-2.447c.46.165.97.267 1.56.267 3.427 0 4.57-3.238 4.57-4.111V61.916c0-3.814-1.459-6.055-2.693-7.268-1.601-1.583-3.529-2.148-4.803-2.148H9.74c-1.56 0-3.274.74-4.61 1.963-1.193 1.1-2.662 3.146-2.866 6.63v14.628l.04.154c.317 1.367 1.622 3.67 4.509 3.67.581 0 1.101-.093 1.55-.268v2.447c0 1.655 1.336 3.001 2.978 3.001zm-.224-3.001V61.926H8.353v13.445c-.02.154-.123.525-.357.843-.286.39-.653.566-1.194.566-1.234 0-1.672-.977-1.794-1.388V61.227c.132-2.005.805-3.629 1.978-4.708.99-.915 2.1-1.233 2.754-1.233h17.143c1.55 0 4.753 1.624 4.753 6.64v13.373c-.082.298-.47 1.47-1.815 1.47-.54 0-.908-.175-1.194-.565a2.543 2.543 0 0 1-.357-.843V61.926h-2.753v19.798a.227.227 0 0 1-.225.226H11.341a.227.227 0 0 1-.225-.226zM62.384 84.725H48.433c-1.642 0-2.978-1.346-2.978-3.001v-2.447a4.264 4.264 0 0 1-1.55.268c-2.887 0-4.192-2.303-4.508-3.67l-.04-.154V61.093c.203-3.484 1.672-5.53 2.865-6.63 1.336-1.223 3.05-1.963 4.61-1.963h17.154c1.274 0 3.202.565 4.803 2.148 1.234 1.213 2.692 3.454 2.692 7.268v13.507c0 .873-1.142 4.111-4.568 4.111a4.551 4.551 0 0 1-1.56-.267v2.447c.01 1.665-1.327 3.011-2.969 3.011zM48.208 61.926v19.798c0 .123.102.226.225.226h13.951a.227.227 0 0 0 .225-.226V61.926h2.753v13.435c.031.144.133.514.357.843.286.39.653.565 1.194.565 1.346 0 1.733-1.172 1.815-1.47V61.926c0-5.016-3.202-6.64-4.753-6.64H46.832c-.653 0-1.765.318-2.754 1.233-1.173 1.08-1.846 2.703-1.979 4.708v14.165c.123.411.561 1.388 1.795 1.388.54 0 .908-.175 1.194-.566a2.05 2.05 0 0 0 .357-.843V61.926h2.763zM85.525 84.725h13.952c1.642 0 2.978-1.346 2.967-3.011v-2.447c.459.165.969.267 1.561.267 3.427 0 4.569-3.238 4.569-4.111V61.916c0-3.814-1.459-6.055-2.693-7.268-1.601-1.583-3.528-2.148-4.803-2.148H83.924c-1.56 0-3.274.74-4.61 1.963-1.193 1.1-2.662 3.146-2.866 6.63v14.628l.041.154c.316 1.367 1.622 3.67 4.508 3.67.581 0 1.101-.093 1.55-.268v2.447c0 1.655 1.336 3.001 2.978 3.001zm-.224-3.001V61.926h-2.764v13.445a2.05 2.05 0 0 1-.357.843c-.286.39-.653.566-1.193.566-1.234 0-1.673-.977-1.795-1.388V61.227c.132-2.005.805-3.629 1.978-4.708.99-.915 2.101-1.233 2.754-1.233h17.144c1.55 0 4.752 1.624 4.752 6.64v13.373c-.081.298-.469 1.47-1.815 1.47-.541 0-.908-.175-1.193-.565a2.517 2.517 0 0 1-.357-.843V61.926h-2.754v19.798a.227.227 0 0 1-.224.226H85.525a.227.227 0 0 1-.224-.226zM92.51 51.24c-4.547 0-8.504-3.258-9.412-7.74a9.58 9.58 0 0 1-.194-1.942c0-2.59 1-5.016 2.815-6.846a9.513 9.513 0 0 1 6.792-2.837 9.513 9.513 0 0 1 6.792 2.837 9.647 9.647 0 0 1 2.814 6.846 9.679 9.679 0 0 1-2.814 6.846 9.513 9.513 0 0 1-6.792 2.836zm0-16.6c-1.835 0-3.548.72-4.843 2.025a6.895 6.895 0 0 0-1.866 6.27c.652 3.197 3.477 5.52 6.72 5.52 1.826 0 3.549-.72 4.844-2.025a6.845 6.845 0 0 0 1.866-3.495c.092-.452.143-.925.143-1.388 0-1.85-.714-3.577-2.009-4.882a6.826 6.826 0 0 0-4.854-2.025zM102.944 119.897c.174.072.357.103.531.103.367 0 .714-.134.979-.411l15.145-15.265c.54-.545.54-1.418 0-1.963l-15.145-15.265a1.375 1.375 0 0 0-1.499-.298c-.51.216-.847.72-.847 1.285v7.226h-88.36c-2.468 0-9.26-1.161-11.066-6.455a1.382 1.382 0 0 0-1.53-.915A1.387 1.387 0 0 0 0 89.306v8.83c0 5.674 2.386 9.58 7.088 11.595 3.865 1.655 8.587 1.655 11.402 1.655h83.608v7.226c0 .566.336 1.069.846 1.285zM2.754 98.136v-4.173c3.284 3.166 8.22 4.122 10.994 4.122h89.727c.765 0 1.376-.617 1.376-1.388v-5.263l11.821 11.914-11.821 11.913v-5.263c0-.771-.611-1.387-1.376-1.387H18.49c-7.608 0-15.736-.802-15.736-10.475z"/><path d="M33.957 13.177a3.665 3.665 0 0 0-.968-3.268A3.565 3.565 0 0 0 30.47 8.86c-.979 0-1.865.4-2.508 1.048a3.622 3.622 0 0 0-1.04 2.538c0 .298.03.586.102.863a3.55 3.55 0 0 0 3.446 2.723c.99 0 1.876-.4 2.519-1.048a3.6 3.6 0 0 0 .968-1.808zM54.999 12.457a3.595 3.595 0 0 1-1.04 2.528 3.529 3.529 0 0 1-2.518 1.049 3.55 3.55 0 0 1-3.447-2.724 3.453 3.453 0 0 1-.102-.863c0-.986.398-1.88 1.04-2.538a3.523 3.523 0 0 1 2.508-1.048c.98 0 1.866.4 2.519 1.048a3.665 3.665 0 0 1 1.04 2.548zM75.906 13.177a3.665 3.665 0 0 0-.969-3.268 3.565 3.565 0 0 0-2.518-1.048c-.979 0-1.866.4-2.508 1.048a3.622 3.622 0 0 0-1.04 2.538c0 .298.03.586.102.863a3.55 3.55 0 0 0 3.446 2.724c.99 0 1.876-.401 2.518-1.048.48-.484.826-1.11.969-1.81z"/><defs><linearGradient id="ga" x1="102.604" y1="-.248" x2="102.604" y2="119.685" gradientUnits="userSpaceOnUse"><stop stop-color="#F0AB52"/><stop offset="1" stop-color="#DC7539"/></linearGradient><linearGradient id="gb" x1="102.604" y1="-.248" x2="102.604" y2="119.685" gradientUnits="userSpaceOnUse"><stop stop-color="#F0AB52"/><stop offset="1" stop-color="#DC7539"/></linearGradient><linearGradient id="gc" x1="102.604" y1="-.248" x2="102.604" y2="119.685" gradientUnits="userSpaceOnUse"><stop stop-color="#F0AB52"/><stop offset="1" stop-color="#DC7539"/></linearGradient><linearGradient id="gd" x1="102.604" y1="-.248" x2="102.604" y2="119.685" gradientUnits="userSpaceOnUse"><stop stop-color="#F0AB52"/><stop offset="1" stop-color="#DC7539"/></linearGradient><linearGradient id="ge" x1="102.604" y1="-.248" x2="102.604" y2="119.685" gradientUnits="userSpaceOnUse"><stop stop-color="#F0AB52"/><stop offset="1" stop-color="#DC7539"/></linearGradient><linearGradient id="gf" x1="102.604" y1="-.248" x2="102.604" y2="119.685" gradientUnits="userSpaceOnUse"><stop stop-color="#F0AB52"/><stop offset="1" stop-color="#DC7539"/></linearGradient><linearGradient id="gg" x1="102.604" y1="-.248" x2="102.604" y2="119.685" gradientUnits="userSpaceOnUse"><stop stop-color="#F0AB52"/><stop offset="1" stop-color="#DC7539"/></linearGradient><linearGradient id="gh" x1="102.604" y1="-.248" x2="102.604" y2="119.685" gradientUnits="userSpaceOnUse"><stop stop-color="#F0AB52"/><stop offset="1" stop-color="#DC7539"/></linearGradient><linearGradient id="gi" x1="102.604" y1="-.248" x2="102.604" y2="119.685" gradientUnits="userSpaceOnUse"><stop stop-color="#F0AB52"/><stop offset="1" stop-color="#DC7539"/></linearGradient><linearGradient id="gj" x1="102.604" y1="-.248" x2="102.604" y2="119.685" gradientUnits="userSpaceOnUse"><stop stop-color="#F0AB52"/><stop offset="1" stop-color="#DC7539"/></linearGradient><linearGradient id="gk" x1="102.604" y1="-.248" x2="102.604" y2="119.685" gradientUnits="userSpaceOnUse"><stop stop-color="#F0AB52"/><stop offset="1" stop-color="#DC7539"/></linearGradient><linearGradient id="gl" x1="102.604" y1="-.248" x2="102.604" y2="119.685" gradientUnits="userSpaceOnUse"><stop stop-color="#F0AB52"/><stop offset="1" stop-color="#DC7539"/></linearGradient><linearGradient id="gm" x1="102.604" y1="-.248" x2="102.604" y2="119.685" gradientUnits="userSpaceOnUse"><stop stop-color="#F0AB52"/><stop offset="1" stop-color="#DC7539"/></linearGradient></defs></symbol><symbol viewBox="0 0 121 120" id="top-trigger2" xmlns="http://www.w3.org/2000/svg"><path fill-rule="evenodd" clip-rule="evenodd" d="M60.077 7.374c9.305 0 16.824 7.524 16.824 16.835 0 9.31-7.593 16.834-16.824 16.834-9.306 0-16.825-7.523-16.825-16.834s7.52-16.835 16.825-16.835zm0 29.944c7.22 0 13.102-5.884 13.102-13.11 0-2.904-.968-5.66-2.531-7.895L68.86 18.1a10.453 10.453 0 0 1 1.936 6.108c0 5.884-4.765 10.651-10.646 10.651-2.233 0-4.318-.67-6.104-1.936L52.26 34.71c2.159 1.639 4.839 2.607 7.817 2.607zm-.075-6.182c3.797 0 6.923-3.129 6.923-6.927 0-1.863-.67-3.65-2.01-4.917-1.34-1.266-3.052-2.01-4.913-2.01-3.797 0-6.923 3.128-6.923 6.927 0 1.862.67 3.575 2.01 4.916 1.34 1.266 3.052 2.01 4.913 2.01zm.075-20.037c-7.221 0-13.102 5.884-13.102 13.11 0 2.979.967 5.66 2.605 7.82l1.712-1.713a10.453 10.453 0 0 1-1.935-6.107c0-5.885 4.764-10.652 10.645-10.652 2.233 0 4.318.67 6.105 1.936l1.786-1.787c-2.159-1.639-4.839-2.607-7.816-2.607z"/><path d="M60.076 50.13a2.382 2.382 0 1 0-.002-4.765 2.382 2.382 0 0 0 .002 4.764z"/><path fill-rule="evenodd" clip-rule="evenodd" d="M61.64 69.87l-1.563 2.383-1.564-2.383c-6.7-10.28-22.259-35.233-22.259-46.034C36.254 10.726 46.974 0 60.077 0c13.102 0 23.822 10.652 23.822 23.836 0 10.8-15.56 35.829-22.26 46.034zm18.537-46.034c0-11.099-9.008-20.112-20.1-20.112-11.093 0-20.1 9.013-20.1 20.112 0 7.598 10.124 25.996 20.1 41.564 9.975-15.568 20.1-33.966 20.1-41.564z"/><path fill-rule="evenodd" clip-rule="evenodd" d="M85.164 57.728l19.579-3.873 15.261 61.75L93.576 120l-33.574-4.022L26.428 120 0 115.605l15.41-61.75 19.579 3.873 10.199-1.713.595 3.65-9.157 1.564-.67 4.916 9.232-1.564.595 3.65-10.422 1.788-6.626 45.959 29.48-3.576v-5.437l-6.625.744-.447-3.724 7.072-.819V79.553h3.722v23.613l7.073.819-.447 3.724-6.626-.744v5.437l29.48 3.576-6.625-45.96-10.422-1.787.595-3.65 9.231 1.564-.67-4.916-9.156-1.564.595-3.65 10.2 1.713zm10.05 58.25l20.323-3.427-13.623-54.302-14.665 2.906.744 5.14 8.263-1.64.745 3.65-8.413 1.64 6.626 46.033zM32.755 61.155L18.09 58.249 4.54 112.477l20.323 3.426L31.49 69.87l-8.412-1.64.744-3.649 8.189 1.713.744-5.14z"/><defs><linearGradient id="ha" x1="102.604" y1="-.248" x2="102.604" y2="119.685" gradientUnits="userSpaceOnUse"><stop stop-color="#F0AB52"/><stop offset="1" stop-color="#DC7539"/></linearGradient><linearGradient id="hb" x1="102.604" y1="-.248" x2="102.604" y2="119.685" gradientUnits="userSpaceOnUse"><stop stop-color="#F0AB52"/><stop offset="1" stop-color="#DC7539"/></linearGradient><linearGradient id="hc" x1="102.604" y1="-.248" x2="102.604" y2="119.685" gradientUnits="userSpaceOnUse"><stop stop-color="#F0AB52"/><stop offset="1" stop-color="#DC7539"/></linearGradient><linearGradient id="hd" x1="102.604" y1="-.248" x2="102.604" y2="119.685" gradientUnits="userSpaceOnUse"><stop stop-color="#F0AB52"/><stop offset="1" stop-color="#DC7539"/></linearGradient></defs></symbol><symbol viewBox="0 0 121 120" id="top-trigger3" xmlns="http://www.w3.org/2000/svg"><path d="M5.996 119.913h75.956a5.996 5.996 0 0 0 5.998-5.995v-7.995a1.999 1.999 0 0 0-3.999 0v7.995a1.998 1.998 0 0 1-1.999 1.998H5.996a1.998 1.998 0 0 1-1.999-1.998V5.996a2 2 0 0 1 2-2 5.996 5.996 0 0 1 5.996 5.997v5.996a3.997 3.997 0 0 0 3.998 3.996h67.96v11.992a1.999 1.999 0 0 0 3.999 0V19.985h7.994a3.997 3.997 0 0 0 3.998-3.996V9.993C99.936 4.477 95.465.007 89.948 0H5.996A5.996 5.996 0 0 0 0 5.996v107.922a5.996 5.996 0 0 0 5.996 5.995zM89.948 3.997a5.996 5.996 0 0 1 5.996 5.996v5.996H15.991V9.993a9.89 9.89 0 0 0-2.051-5.996h76.008z"/><path d="M35.977 37.973a1.999 1.999 0 0 0 2-2v-3.996a5.997 5.997 0 0 0-5.998-5.996H15.99a5.996 5.996 0 0 0-5.997 5.996v15.988a5.996 5.996 0 0 0 5.997 5.995h9.993a1.998 1.998 0 1 0 0-3.997H15.99a1.999 1.999 0 0 1-1.999-1.998V31.977c0-1.104.895-1.998 2-1.998h15.988c1.104 0 2 .894 2 1.998v3.997c0 1.104.894 1.999 1.998 1.999zM11.992 63.954h13.991a1.999 1.999 0 1 0 0-3.997h-13.99a1.998 1.998 0 1 0 0 3.997zM11.992 71.948h13.991a1.999 1.999 0 1 0 0-3.996h-13.99a1.998 1.998 0 1 0 0 3.996zM11.992 79.942h13.991a1.999 1.999 0 1 0 0-3.997h-13.99a1.999 1.999 0 1 0 0 3.998zM11.992 87.937H31.98a1.999 1.999 0 1 0 0-3.998H11.992a1.999 1.999 0 1 0 0 3.998zM31.981 93.932a2 2 0 0 0 2 2h7.994a1.999 1.999 0 1 0 0-3.998H33.98a1.999 1.999 0 0 0-1.999 1.998zM11.992 95.931h13.991a1.999 1.999 0 1 0 0-3.997h-13.99a1.999 1.999 0 1 0 0 3.997zM11.992 103.926h63.963a2 2 0 0 0 0-3.998H11.992a1.999 1.999 0 1 0 0 3.998zM80.506 45.411c-9.452-9.441-24.686-9.7-34.453-.585-9.767 9.116-10.557 24.33-1.787 34.407.343.4.729.816 1.156 1.265 9.703 9.65 25.38 9.65 35.084 0 9.655-9.703 9.655-25.383 0-35.087zm-2.824 32.26c-8.124 8.086-21.252 8.103-29.398.04-.331-.352-.665-.705-.985-1.082-7.433-8.52-6.699-21.414 1.652-29.037 8.35-7.621 21.26-7.178 29.07.997 7.81 8.175 7.659 21.09-.34 29.081z"/><path d="M95.545 86.848l-5.261-5.26c8.643-12.646 7.464-29.572-2.849-40.897a28.02 28.02 0 0 0-1.07-1.133c-12.933-12.901-33.87-12.901-46.802 0a31.97 31.97 0 0 0-5.311 6.963 32.324 32.324 0 0 0-1.998 4.078 33.106 33.106 0 0 0 7.317 35.753l.304.314c.251.26.5.518.761.747a33.124 33.124 0 0 0 19.775 8.518 28.938 28.938 0 0 0 5.082.002 32.927 32.927 0 0 0 15.93-5.512l5.3 5.664a4.052 4.052 0 0 0 .948 3.368l15.214 17.24a9.84 9.84 0 0 0 7.032 3.307h.304a9.793 9.793 0 1 0 6.48-17.126l-17.24-15.211a4.058 4.058 0 0 0-3.916-.815zm-6.513 5.84l-4.414-4.717a33.371 33.371 0 0 0 1.748-1.619c.502-.5.986-1.02 1.466-1.565l4.548 4.549-3.347 3.351zm-23.87-.754c-1.474.13-2.957.13-4.432 0a29.145 29.145 0 0 1-17.429-7.495c-.2-.176-.374-.364-.556-.549l-.36-.37a29.114 29.114 0 0 1-6.438-31.428 28.598 28.598 0 0 1 1.773-3.596 28.081 28.081 0 0 1 4.665-6.119c11.371-11.34 29.777-11.34 41.149 0 .311.315.623.647.922.976l.014.016c9.467 10.382 10.157 26.046 1.639 37.22a31.335 31.335 0 0 1-2.575 2.931 30.924 30.924 0 0 1-2.918 2.562 28.941 28.941 0 0 1-15.454 5.852zm50.845 18.087a5.797 5.797 0 0 1-10.128 4.011L90.668 96.69l6.142-6.04 17.241 15.209a5.725 5.725 0 0 1 1.96 4.17l-.004-.008z"/><path d="M62.791 48.146a1.998 1.998 0 0 0-2.646.999l-9.994 21.983a1.999 1.999 0 1 0 3.638 1.655l9.994-21.984a2 2 0 0 0-.992-2.653zM54.862 48.175a1.997 1.997 0 0 0-2.683.896l-5.996 11.99a1.999 1.999 0 0 0 3.578 1.788l5.996-11.991a1.998 1.998 0 0 0-.895-2.682z"/><defs><linearGradient id="ia" x1="102.604" y1="-.248" x2="102.604" y2="119.685" gradientUnits="userSpaceOnUse"><stop stop-color="#F0AB52"/><stop offset="1" stop-color="#DC7539"/></linearGradient><linearGradient id="ib" x1="102.604" y1="-.248" x2="102.604" y2="119.685" gradientUnits="userSpaceOnUse"><stop stop-color="#F0AB52"/><stop offset="1" stop-color="#DC7539"/></linearGradient><linearGradient id="ic" x1="102.604" y1="-.248" x2="102.604" y2="119.685" gradientUnits="userSpaceOnUse"><stop stop-color="#F0AB52"/><stop offset="1" stop-color="#DC7539"/></linearGradient><linearGradient id="id" x1="102.604" y1="-.248" x2="102.604" y2="119.685" gradientUnits="userSpaceOnUse"><stop stop-color="#F0AB52"/><stop offset="1" stop-color="#DC7539"/></linearGradient><linearGradient id="ie" x1="102.604" y1="-.248" x2="102.604" y2="119.685" gradientUnits="userSpaceOnUse"><stop stop-color="#F0AB52"/><stop offset="1" stop-color="#DC7539"/></linearGradient><linearGradient id="if" x1="102.604" y1="-.248" x2="102.604" y2="119.685" gradientUnits="userSpaceOnUse"><stop stop-color="#F0AB52"/><stop offset="1" stop-color="#DC7539"/></linearGradient><linearGradient id="ig" x1="102.604" y1="-.248" x2="102.604" y2="119.685" gradientUnits="userSpaceOnUse"><stop stop-color="#F0AB52"/><stop offset="1" stop-color="#DC7539"/></linearGradient><linearGradient id="ih" x1="102.604" y1="-.248" x2="102.604" y2="119.685" gradientUnits="userSpaceOnUse"><stop stop-color="#F0AB52"/><stop offset="1" stop-color="#DC7539"/></linearGradient><linearGradient id="ii" x1="102.604" y1="-.248" x2="102.604" y2="119.685" gradientUnits="userSpaceOnUse"><stop stop-color="#F0AB52"/><stop offset="1" stop-color="#DC7539"/></linearGradient><linearGradient id="ij" x1="102.604" y1="-.248" x2="102.604" y2="119.685" gradientUnits="userSpaceOnUse"><stop stop-color="#F0AB52"/><stop offset="1" stop-color="#DC7539"/></linearGradient><linearGradient id="ik" x1="102.604" y1="-.248" x2="102.604" y2="119.685" gradientUnits="userSpaceOnUse"><stop stop-color="#F0AB52"/><stop offset="1" stop-color="#DC7539"/></linearGradient><linearGradient id="il" x1="102.604" y1="-.248" x2="102.604" y2="119.685" gradientUnits="userSpaceOnUse"><stop stop-color="#F0AB52"/><stop offset="1" stop-color="#DC7539"/></linearGradient><linearGradient id="im" x1="102.604" y1="-.248" x2="102.604" y2="119.685" gradientUnits="userSpaceOnUse"><stop stop-color="#F0AB52"/><stop offset="1" stop-color="#DC7539"/></linearGradient></defs></symbol></svg>