<?xml version="1.0" encoding="utf-8"?>
<!-- Generator: Adobe Illustrator 22.0.0, SVG Export Plug-In . SVG Version: 6.00 Build 0)  -->
<svg version="1.1" id="Слой_1" xmlns="http://www.w3.org/2000/svg" xmlns:xlink="http://www.w3.org/1999/xlink" x="0px" y="0px"
	 viewBox="0 0 256 256" style="enable-background:new 0 0 256 256;" xml:space="preserve">
<style type="text/css">
	.st0{clip-path:url(#SVGID_2_);fill:#f15d2b;}
	.st1{fill:#f15d2b;}
</style>
<g>
	<g>
		<defs>
			<rect id="SVGID_1_" x="46.5" y="22.8" width="150.5" height="195.2"/>
		</defs>
		<clipPath id="SVGID_2_">
			<use xlink:href="#SVGID_1_"  style="overflow:visible;"/>
		</clipPath>
		<polygon class="st0" points="197,22.8 183.6,22.8 178.4,42.8 190,42.8 197,22.8 		"/>
	</g>
	<polygon class="st1" points="178.2,101.5 189.8,101.5 196.8,81.5 183.4,81.5 178.2,101.5 	"/>
	<path class="st1" d="M153.7,103.7l4,12.4h-8.2L153.7,103.7L153.7,103.7z M127.5,136.4h15.5l2.5-7.4h16l2.6,7.4h18.4l-19.6-50.2H145
		l-17.4,44.3v-8.5h-16.7V86.2h-17v50.2h31.3H127.5L127.5,136.4z"/>
	<path class="st1" d="M102.3,175.8l4.1-12.4l4,12.4H102.3L102.3,175.8z M182.5,145.9h-19.9l-13.4,18.5h-0.1v-18.5h-16.4v44l-17.2-44
		H97.7l-17.4,44.3v-8.5H63.6v-35.7h-17v50.2h31.3h2.3h15.5l2.5-7.4h16l2.6,7.4h15.9h2.4h14v-20h0.1l13.4,20h20.7l-19.8-27.2
		L182.5,145.9L182.5,145.9z"/>
	<path class="st1" d="M149.8,42.5c5.5,0,10,4.5,10,10c0,5.5-4.5,10-10,10c-5.5,0-10-4.5-10-10C139.8,47,144.3,42.5,149.8,42.5
		L149.8,42.5z M149.8,79.7c15,0,27.2-12.2,27.2-27.2c0-15-12.2-27.2-27.2-27.2c-15,0-27.2,12.2-27.2,27.2
		C122.6,67.5,134.8,79.7,149.8,79.7L149.8,79.7z"/>
	<polygon class="st1" points="46.5,217.9 46.5,210.4 47.7,210.4 51.7,215.6 51.7,210.4 53,210.4 53,217.9 51.9,217.9 47.8,212.6 
		47.8,217.9 46.5,217.9 	"/>
	<path class="st1" d="M63.6,214.9h2.6l-1.3-3L63.6,214.9L63.6,214.9z M61,217.9l3.3-7.5h1.2l3.3,7.5h-1.4l-0.8-1.8h-3.5l-0.8,1.8H61
		L61,217.9z"/>
	<polygon class="st1" points="76.8,217.9 76.8,210.4 78.1,210.4 78.1,217.9 76.8,217.9 	"/>
	<polygon class="st1" points="86.8,217.9 86.8,210.4 88.1,210.4 88.1,216.7 92,216.7 92,217.9 86.8,217.9 	"/>
	<path class="st1" d="M112.5,218c-1.2,0-2.2-0.4-3.1-1.2l0.8-0.9c0.7,0.6,1.5,1,2.4,1c0.4,0,0.7-0.1,1-0.3c0.2-0.2,0.4-0.4,0.4-0.7
		c0-0.3-0.1-0.5-0.3-0.7c-0.2-0.2-0.7-0.3-1.3-0.5c-0.9-0.2-1.5-0.5-1.9-0.8c-0.4-0.3-0.6-0.8-0.6-1.5c0-0.6,0.2-1.2,0.7-1.6
		c0.5-0.4,1.1-0.6,1.8-0.6c1,0,1.9,0.3,2.7,0.9l-0.7,1c-0.7-0.5-1.4-0.8-2-0.8c-0.4,0-0.7,0.1-0.9,0.3c-0.2,0.2-0.3,0.4-0.3,0.6
		c0,0.3,0.1,0.5,0.4,0.7c0.2,0.2,0.7,0.3,1.4,0.5c0.8,0.2,1.4,0.5,1.8,0.8c0.4,0.3,0.6,0.8,0.6,1.4c0,0.7-0.2,1.2-0.7,1.6
		C114,217.8,113.3,218,112.5,218L112.5,218z"/>
	<polygon class="st1" points="125.1,217.9 125.1,211.6 122.7,211.6 122.7,210.4 128.8,210.4 128.8,211.6 126.4,211.6 126.4,217.9 
		125.1,217.9 	"/>
	<path class="st1" d="M139.9,218c-1,0-1.8-0.3-2.3-0.8s-0.8-1.4-0.8-2.4v-4.3h1.3v4.2c0,0.7,0.2,1.2,0.5,1.6
		c0.3,0.4,0.8,0.6,1.4,0.6c0.6,0,1-0.2,1.4-0.5c0.3-0.4,0.5-0.9,0.5-1.5v-4.3h1.3v4.2c0,1.1-0.3,1.9-0.9,2.5
		C141.7,217.7,140.9,218,139.9,218L139.9,218z"/>
	<path class="st1" d="M152.9,216.7h1.5c0.8,0,1.4-0.2,1.9-0.7c0.5-0.5,0.7-1.1,0.7-1.8c0-0.7-0.2-1.3-0.7-1.8
		c-0.5-0.5-1.1-0.7-1.9-0.7h-1.5V216.7L152.9,216.7z M151.6,217.9v-7.5h2.8c1.2,0,2.1,0.4,2.9,1.1c0.7,0.7,1.1,1.6,1.1,2.7
		c0,1.1-0.4,2-1.1,2.7c-0.7,0.7-1.7,1.1-2.8,1.1H151.6L151.6,217.9z"/>
	<polygon class="st1" points="166.7,217.9 166.7,210.4 168,210.4 168,217.9 166.7,217.9 	"/>
	<path class="st1" d="M178.4,216c0.5,0.5,1.1,0.8,1.8,0.8c0.7,0,1.3-0.3,1.8-0.8c0.5-0.5,0.7-1.1,0.7-1.9c0-0.7-0.2-1.4-0.7-1.9
		c-0.5-0.5-1.1-0.8-1.8-0.8s-1.3,0.3-1.8,0.8c-0.5,0.5-0.7,1.1-0.7,1.9C177.7,214.9,178,215.5,178.4,216L178.4,216z M183,216.9
		c-0.7,0.8-1.7,1.1-2.8,1.1c-1.1,0-2.1-0.4-2.8-1.1c-0.7-0.7-1.1-1.7-1.1-2.7c0-1.1,0.4-2,1.1-2.7c0.7-0.8,1.7-1.1,2.8-1.1
		c1.1,0,2.1,0.4,2.8,1.1c0.7,0.7,1.1,1.7,1.1,2.7C184.1,215.2,183.8,216.1,183,216.9L183,216.9z"/>
</g>
</svg>
