<svg xmlns="http://www.w3.org/2000/svg" xmlns:xlink="http://www.w3.org/1999/xlink" width="41" height="41" viewBox="0 0 41 41"><defs><path id="j2voa" d="M772.53 1043.133a1.852 1.852 0 0 1 1.804-.758l2.242.38 8.986 9.11v1.79c0 .603-.289 1.17-.773 1.522l-11.214 8.123a1.82 1.82 0 0 1-2.377-.203l-6.322-6.41a1.884 1.884 0 0 1-.197-2.408zm8.468-.157l4.39 4.443-1.16 1.173-4.389-4.443zm-10.742 21.078a3.135 3.135 0 0 0 4.093.343l11.216-8.12a3.247 3.247 0 0 0 1.333-2.623v-2.068a.68.68 0 0 0-.195-.478l-1.529-1.55 1.631-1.653a.683.683 0 0 0 0-.956l-5.332-5.407a.66.66 0 0 0-.943 0l-1.63 1.653-1.528-1.55a.662.662 0 0 0-.362-.188l-2.454-.415a3.179 3.179 0 0 0-3.108 1.306l-7.853 11.145a3.244 3.244 0 0 0 .34 4.151z"/><path id="j2vob" d="M773.96 1062a.722.722 0 0 0 .437-.148l9.322-7.171a.719.719 0 0 0 .071-1.076l-8.604-8.605-1.016 1.014 8.027 8.031-8.174 6.289-6.01-6.012-1.013 1.014 6.453 6.454c.135.134.317.21.507.21z"/><path id="j2voc" d="M787.383 1040.083l.534.534-1.233 1.644-.945-.945zm11.72-14.487l3.301 3.3-1.508 2.058-2.616-2.614-.975.975 2.763 2.765-.925 1.262-2.933-2.933-.975.975 3.082 3.083-.925 1.263-3.94-3.942-.976.975 4.091 4.092-.925 1.262-5.76-5.76zm-12.832 18.202a.69.69 0 0 0 .488.202h.048a.689.689 0 0 0 .503-.276l2.069-2.758a.69.69 0 0 0-.064-.902l-.202-.202 3.163-3.163 2.96 2.961a.69.69 0 0 0 .488.202h.052a.689.689 0 0 0 .504-.28l7.586-10.345a.69.69 0 0 0-.069-.896l-4.137-4.138a.69.69 0 0 0-.897-.07l-10.345 7.587a.691.691 0 0 0-.079 1.044l2.961 2.96-3.162 3.163-.202-.202a.69.69 0 0 0-.902-.064l-2.758 2.069a.69.69 0 0 0-.074 1.039z"/></defs><g><g transform="translate(-763 -1024)"><g><use fill="#ffae29" xlink:href="#j2voa"/></g><g><use fill="#ffae29" xlink:href="#j2vob"/></g><g><use fill="#ffae29" xlink:href="#j2voc"/></g></g></g></svg>