<svg width="56" height="56" viewBox="0 0 56 56" fill="none" xmlns="http://www.w3.org/2000/svg">
<path d="M55.9663 11.2213C55.8352 10.7533 55.3546 10.4635 54.8959 10.5973C54.8303 10.6196 53.0391 11.1322 52.5585 11.2882C51.8594 11.5111 51.2696 12.2689 51.0949 12.4918C51.073 12.5141 51.073 12.5363 51.0512 12.5363C51.0293 12.5809 48.124 17.2837 46.5512 19.7354C45.1313 21.9196 42.5973 22.8557 42.5754 22.8557H42.5536C40.6531 23.5912 38.1409 24.5496 36.022 25.3297C35.4322 25.5526 34.8861 25.7532 34.3836 25.9315C33.1385 26.3773 32.2429 26.6893 32.0026 26.7562C31.4783 26.8676 31.1943 26.9345 30.7137 25.9092C30.6482 25.7532 30.5827 25.1291 32.4176 23.1678C32.505 23.0786 32.5924 22.9895 32.6579 22.9003C32.7671 22.7889 32.8545 22.6997 32.92 22.6329C33.0511 22.5214 33.4225 22.3208 33.8812 22.0979C34.4273 21.8305 35.0827 21.5407 35.5633 21.3401C36.5463 20.8944 37.3982 20.5155 37.857 20.2257C39.3206 19.2674 38.8181 16.459 38.8181 16.4145C38.7307 16.0133 38.6215 15.3892 34.8205 13.5616C34.0123 13.1827 33.1166 13.361 33.0293 13.3833C33.0074 13.3833 32.9856 13.3833 32.9419 13.4056C32.6579 13.4947 30.0802 14.3417 29.3812 14.6537C28.7259 14.9435 28.0268 15.7013 27.1093 16.7265C26.9346 16.9271 26.7598 17.1277 26.5851 17.2837C25.6021 18.3535 25.6676 19.5571 25.6676 19.6908C25.6676 19.7131 25.6676 19.7354 25.6676 19.78L25.886 20.9835C25.1433 21.3624 24.4661 21.8751 23.8763 22.4768C23.3739 20.9612 22.653 18.8662 22.5001 18.3758C22.4346 18.1752 22.5875 17.6849 22.7841 17.3729C23.0899 16.9271 27.3715 10.8424 28.4856 9.43829C29.4467 8.23473 30.4953 7.96728 30.539 7.94499C30.5608 7.94499 30.5608 7.94499 30.5827 7.9227L52.1434 1.7489C52.6022 1.61517 52.8862 1.12483 52.7551 0.656778C52.624 0.188727 52.1434 -0.101018 51.6847 0.0327106L30.1239 6.20652C29.8836 6.27338 28.3982 6.69686 27.1312 8.3016C25.9297 9.7949 21.5171 16.1024 21.3423 16.3476C21.3423 16.3699 21.3205 16.3699 21.3205 16.3922C21.1676 16.6151 20.4904 17.8409 20.8617 18.9553C21.0802 19.5794 22.2598 23.1009 22.6312 24.2376C22.1069 25.2629 21.8229 26.4218 21.8229 27.6477C21.8229 30.1217 23.0244 32.3282 24.8812 33.6878C24.6627 33.7323 24.488 33.7992 24.4224 33.8215C23.7016 34.0667 13.3035 37.7442 12.1894 38.2568C11.1845 38.7249 10.0923 40.0622 9.58985 40.7085C9.48062 40.7085 9.34955 40.7085 9.24033 40.6862C9.08742 40.6639 8.9345 40.6862 8.78159 40.7085V39.0369C8.78159 38.5466 8.38839 38.1454 7.9078 38.1454H0.87379C0.393206 38.1454 0 38.5466 0 39.0369V55.1066C0 55.597 0.393206 55.9982 0.87379 55.9982H7.9078C8.38839 55.9982 8.78159 55.597 8.78159 55.1066V54.1482C11.2282 54.1928 18.153 54.282 21.386 54.282C21.7792 54.282 22.1287 54.282 22.3909 54.282C24.8375 54.2597 25.9297 53.8585 28.1142 53.0784C28.7914 52.8332 29.556 52.5658 30.4953 52.2315C34.3618 50.9388 35.5414 49.7352 35.8036 49.4009C35.9128 49.2671 36.6337 48.4871 38.3812 46.5703C39.8885 44.921 42.073 42.135 42.2259 41.3103C42.4662 40.0176 40.4346 39.2821 39.7138 39.1261C38.5997 38.8809 37.3764 39.2375 36.5244 39.5495C35.7817 39.8393 35.0827 40.6416 34.0123 41.9344C33.6846 42.3355 33.3788 42.7144 33.0948 43.0042C32.4395 43.7174 29.3157 44.5644 26.3885 44.5198C24.3569 44.4975 22.3472 42.9373 21.7137 42.291C21.7137 42.2464 21.7137 42.1795 21.7355 42.1127C21.9977 41.9566 22.653 41.6892 23.2647 41.4217C23.7234 41.2211 24.2695 40.9983 24.8812 40.7308C26.9783 39.7947 27.5244 38.1454 27.8084 37.2539C27.8521 37.1424 27.8739 37.0533 27.9176 36.9641C28.1797 36.2955 28.0487 35.56 27.6991 34.9582C28.1579 35.0473 28.6385 35.0919 29.1191 35.0919C33.1385 35.0919 36.3934 31.771 36.3934 27.67C36.3934 27.4694 36.3934 27.2688 36.3715 27.0682C39.0366 26.0875 42.2041 24.884 43.1652 24.5051C43.4055 24.4159 46.289 23.3238 48.0148 20.6938C49.5439 18.3312 52.2745 13.9182 52.5366 13.4947C52.6895 13.2941 52.9735 13.0044 53.0828 12.9598C53.5633 12.8038 55.3764 12.2912 55.3764 12.2689C55.8352 12.202 56.0973 11.7117 55.9663 11.2213ZM7.03401 54.2151H1.74758V40.0399H7.03401V54.2151ZM26.3011 36.3178C26.2574 36.4292 26.2137 36.5629 26.17 36.7189C25.9297 37.4767 25.5802 38.502 24.204 39.1261C23.6142 39.3935 23.0899 39.6164 22.6312 39.817C21.0365 40.4856 20.4904 40.7308 20.2501 41.2211C19.9879 41.7338 19.7477 42.8259 20.4904 43.5614C20.5996 43.6728 23.221 46.3028 26.4103 46.3474C28.8351 46.3697 33.0511 45.7456 34.4055 44.2746C34.7113 43.9403 35.0608 43.5168 35.3885 43.1379C35.9346 42.4916 36.8303 41.3994 37.1798 41.2657C38.0536 40.9314 38.8618 40.7977 39.4079 40.9091C39.7793 40.976 40.1288 41.1543 40.3691 41.288C39.8885 42.0458 38.6871 43.6951 37.1361 45.3667C35.1919 47.4841 34.5366 48.2196 34.5147 48.2419C34.4929 48.2642 34.4929 48.2642 34.471 48.2865C34.3618 48.3979 33.3788 49.4009 29.9928 50.5376C29.0317 50.8719 28.2453 51.1394 27.5681 51.3845C25.4273 52.1423 24.5535 52.4766 22.4127 52.4989C19.9224 52.5212 11.534 52.4098 8.80344 52.3652V42.6922C8.9345 42.6253 9.06557 42.5807 9.13111 42.5807C9.58985 42.6253 10.0704 42.5807 10.1141 42.5807C10.3763 42.5584 10.6166 42.4247 10.7695 42.2018C11.1845 41.6223 12.2331 40.285 12.9321 39.973C13.8277 39.5718 21.9758 36.6744 25.0341 35.5822C25.0559 35.5822 25.0778 35.56 25.0778 35.56C25.187 35.5154 25.5584 35.4039 25.7987 35.5377C26.1482 35.6937 26.3666 36.1395 26.3011 36.3178ZM27.437 19.5794C27.437 19.4679 27.4807 18.9999 27.8739 18.5764C28.0487 18.3981 28.2234 18.1975 28.42 17.9746C28.9225 17.4174 29.7526 16.4813 30.1021 16.3253C30.6045 16.1024 32.6361 15.4115 33.4443 15.1663C33.5754 15.1441 33.8812 15.1218 34.0997 15.2109C35.7162 15.991 36.8303 16.6596 37.1579 16.9494C37.2453 17.6403 37.1361 18.5987 36.9395 18.7547C36.6118 18.9553 35.7162 19.3788 34.9079 19.7131C33.6409 20.2703 32.789 20.6715 32.2647 20.9835C31.3254 20.5155 30.255 20.2703 29.1409 20.2703C28.6166 20.2703 28.1142 20.3372 27.6118 20.4263L27.437 19.5794ZM29.1191 33.3534C26.0826 33.3534 23.5923 30.8126 23.5923 27.7145C23.5923 24.5942 26.0826 22.0757 29.1191 22.0757C29.7089 22.0757 30.2768 22.1648 30.8229 22.3431C29.7744 23.5021 28.4637 25.2183 29.1409 26.6893C29.7526 27.982 30.5171 28.6061 31.6094 28.6061C31.8278 28.6061 32.0899 28.5838 32.3302 28.5169C32.6142 28.4723 33.488 28.1603 34.6239 27.7368C34.6239 30.8349 32.1555 33.3534 29.1191 33.3534Z" fill="url(#paint0_linear)"/>
<defs>
<linearGradient id="paint0_linear" x1="28" y1="-0.134916" x2="28" y2="55.8323" gradientUnits="userSpaceOnUse">
<stop stop-color="#C83F21"/>
<stop offset="1" stop-color="#F0AB52"/>
</linearGradient>
</defs>
</svg>
