<svg width="56" height="56" viewBox="0 0 56 56" fill="none" xmlns="http://www.w3.org/2000/svg">
<path fill-rule="evenodd" clip-rule="evenodd" d="M56 16.2575V23.4831H50.5806V26.3118L54.1935 25.2895H56V45.1598H45.4008L44.9633 43.7644L41.6097 46.4476L41.9087 46.8462C42.2593 47.312 42.4516 47.8892 42.4516 48.4718V48.7726C42.4516 50.2663 41.2357 51.4822 39.7419 51.4822C39.3922 51.4822 39.0557 51.3984 38.7386 51.2709C38.4303 52.4286 37.3829 53.2886 36.129 53.2886C35.7793 53.2886 35.4428 53.2048 35.1257 53.0773C34.8174 54.235 33.77 55.095 32.5161 55.095C31.7593 55.095 31.0466 54.7598 30.5372 54.2098C30.1588 55.2493 29.1696 55.9982 28 55.9982H27.8448C27.121 55.9982 26.4401 55.7164 25.9289 55.2043L25.2603 54.5358C24.7792 54.8899 24.1948 55.095 23.5932 55.095C22.3332 55.095 21.2765 54.2588 20.9162 53.1161C20.6163 53.2224 20.3019 53.2886 19.9803 53.2886C18.4601 53.2886 17.2244 52.0767 17.1714 50.5688C15.6636 50.5159 14.4516 49.2811 14.4516 47.76C14.4516 47.349 14.5456 46.9561 14.7109 46.5931L12.1799 45.9338L8.36278 43.644L7.88955 45.1598H0V25.2895H1.96522L5.41935 26.5459V23.4831H0V16.2575H5.41935V9.58852L14.0498 0H50.5806V16.2575H56ZM14.4516 9.03196V2.25358L8.35043 9.03196H14.4516ZM16.2581 10.8384H7.22581V16.2575H12.6452V12.7629L23.3061 19.8703L12.6452 26.9777V23.4831H7.22581V27.2026L12.8608 29.252L12.2227 31.2939L16.4711 33.4183H22.8325C23.7948 33.4183 24.7329 33.6467 25.5911 34.063L27.5241 33.0968C28.2801 32.7192 29.0893 32.4996 29.9313 32.4436L41.1925 31.693L40.4105 29.1903L48.7742 26.8233V23.4831H43.3548V26.9777L32.6939 19.8703L43.3548 12.7629V16.2575H48.7742V1.80639H16.2581V10.8384ZM1.80645 18.0639V21.6767H14.4516V23.6013L20.0487 19.8703L14.4516 16.1393V18.0639H1.80645ZM1.80645 43.3534H6.56206L10.623 30.3589L1.80645 27.1537V43.3534ZM8.91847 41.8703L12.9949 44.3161L15.9807 45.0632L21.176 39.8681C22.2918 38.7545 24.1189 38.5287 25.472 39.3389L28.8644 41.3737C29.0541 41.4875 29.2697 41.547 29.4902 41.547C30.1632 41.547 30.7097 41.0006 30.7097 40.3285V40.0132C30.7097 39.5907 30.4958 39.2039 30.1381 38.9803L25.2264 35.9109C24.5079 35.4624 23.6806 35.2246 22.8334 35.2246H16.045L11.678 33.0407L8.91847 41.8703ZM28 54.1918C28.4984 54.1918 28.9032 53.786 28.9032 53.2886V53.1342C28.9032 52.893 28.8093 52.6654 28.6386 52.4947L27.8906 51.7468C27.7226 51.5788 27.4897 51.4822 27.252 51.4822H27.0968C26.5984 51.4822 26.1935 51.8879 26.1935 52.3854V52.5397C26.1935 52.781 26.2875 53.0085 26.4582 53.1792L27.2061 53.9272C27.3742 54.0952 27.607 54.1918 27.8448 54.1918H28ZM32.5161 53.2886C33.0145 53.2886 33.4194 52.8828 33.4194 52.3854V52.0846C33.4194 51.8906 33.3554 51.6978 33.2385 51.5426L31.4321 49.1338C31.2623 48.9071 30.9924 48.7726 30.7097 48.7726C30.2113 48.7726 29.8064 49.1783 29.8064 49.6758V49.9766C29.8064 50.1706 29.8704 50.3633 29.9873 50.5186L31.7937 52.9274C31.9635 53.1541 32.2334 53.2886 32.5161 53.2886ZM36.129 51.4822C36.6274 51.4822 37.0323 51.0764 37.0323 50.579V50.2782C37.0323 50.0842 36.9683 49.8914 36.8514 49.7362L35.045 47.3274C34.8752 47.1007 34.6053 46.9662 34.3226 46.9662C33.8242 46.9662 33.4194 47.3719 33.4194 47.8694V48.1702C33.4194 48.3642 33.4833 48.5569 33.6002 48.7122L35.4066 51.121C35.5764 51.3477 35.8463 51.4822 36.129 51.4822ZM39.7419 49.6758C40.2403 49.6758 40.6452 49.2701 40.6452 48.7726V48.4718C40.6452 48.2778 40.5812 48.085 40.4643 47.9298L38.6579 45.521C38.4881 45.2943 38.2182 45.1598 37.9355 45.1598C37.4371 45.1598 37.0323 45.5655 37.0323 46.063V46.3638C37.0323 46.5578 37.0962 46.7505 37.2131 46.9058L39.0195 49.3146C39.1893 49.5413 39.4592 49.6758 39.7419 49.6758ZM40.1031 44.4374L40.5261 45.0019L44.3855 41.9148L41.7464 33.4681L30.0503 34.2474C29.4488 34.2871 28.8715 34.4445 28.3317 34.7144L27.4355 35.1625L31.0943 37.4482C31.9842 38.0039 32.5161 38.9631 32.5161 40.0132V40.3285C32.5161 41.9969 31.1586 43.3534 29.4902 43.3534C28.9429 43.3534 28.4049 43.2043 27.9338 42.9225L24.5423 40.8877C23.8856 40.493 22.9952 40.6032 22.4532 41.1453L16.5544 47.0438C16.363 47.2352 16.2581 47.4892 16.2581 47.76C16.2581 48.3183 16.7123 48.7726 17.2707 48.7726C17.537 48.7726 17.7981 48.6641 17.9869 48.4762L22.8453 43.618L24.1225 44.8952L19.2641 49.7534C19.0727 49.9448 18.9677 50.1988 18.9677 50.4696C18.9677 51.0279 19.422 51.4822 19.9803 51.4822C20.2467 51.4822 20.5078 51.3737 20.6966 51.1858L25.5549 46.3276L26.8322 47.6048L22.877 51.5598C22.6856 51.7512 22.5806 52.0052 22.5806 52.276C22.5806 52.8343 23.0349 53.2886 23.5932 53.2886C23.8596 53.2886 24.1207 53.1801 24.3095 52.9922L24.4206 52.8811C24.4178 52.8592 24.4148 52.8373 24.4119 52.8155L24.4119 52.8154L24.4119 52.8153C24.3994 52.7239 24.3871 52.633 24.3871 52.5397V52.3854C24.3871 50.8917 25.603 49.6758 27.0968 49.6758H27.252C27.5105 49.6758 27.7588 49.7239 28 49.7931V49.6758C28 48.1821 29.2159 46.9662 30.7097 46.9662C31.0594 46.9662 31.3959 47.05 31.713 47.1774C32.0213 46.0198 33.0687 45.1598 34.3226 45.1598C34.6723 45.1598 35.0088 45.2436 35.3259 45.3711C35.6342 44.2134 36.6816 43.3534 37.9355 43.3534C38.7845 43.3534 39.5946 43.7591 40.1031 44.4374ZM54.1935 43.3534V27.132L42.6862 30.4198L46.7283 43.3534H54.1935ZM41.5484 23.6013V21.6767H54.1935V18.0639H41.5484V16.1393L35.9513 19.8703L41.5484 23.6013ZM29.8049 18.0633C29.8049 17.0671 28.9947 16.257 27.9985 16.257C27.0023 16.257 26.1922 17.0671 26.1922 18.0633C26.1922 19.0595 27.0023 19.8696 27.9985 19.8696C29.991 19.8696 31.6112 21.4898 31.6112 23.4823C31.6112 25.1603 30.4562 26.5631 28.9017 26.9666V28.9013H27.0954V26.9666C25.5408 26.5631 24.3859 25.1603 24.3859 23.4823H26.1922C26.1922 24.4785 27.0023 25.2886 27.9985 25.2886C28.9947 25.2886 29.8049 24.4785 29.8049 23.4823C29.8049 22.4861 28.9947 21.676 27.9985 21.676C26.0061 21.676 24.3859 20.0557 24.3859 18.0633C24.3859 16.3853 25.5408 14.9825 27.0954 14.579V12.6443H28.9017V14.579C30.4562 14.9825 31.6112 16.3853 31.6112 18.0633H29.8049ZM18.0632 3.61243H46.9646V5.41876H18.0632V3.61243ZM46.9646 7.22559H18.0632V9.03192H46.9646V7.22559Z" fill="url(#paint0_linear)"/>
<defs>
<linearGradient id="paint0_linear" x1="28" y1="-0.134916" x2="28" y2="55.8323" gradientUnits="userSpaceOnUse">
<stop stop-color="#C83F21"/>
<stop offset="1" stop-color="#F0AB52"/>
</linearGradient>
</defs>
</svg>
