<svg width="121" height="120" viewBox="0 0 121 120" fill="none" xmlns="http://www.w3.org/2000/svg">
<path d="M104.27 17.0631C104.607 17.0631 104.913 16.9398 105.147 16.7034C105.626 16.2203 105.626 15.4288 105.147 14.956L102.169 11.9545V5.73578C102.169 5.04709 101.619 4.49203 100.935 4.49203C100.252 4.49203 99.7014 5.04709 99.7014 5.73578V12.4685C99.7014 12.7974 99.8238 13.1058 100.058 13.3422L103.393 16.7034C103.628 16.9398 103.944 17.0631 104.27 17.0631Z" fill="url(#paint0_linear)"/>
<path fill-rule="evenodd" clip-rule="evenodd" d="M112.356 7.68863C111.744 6.19819 110.836 4.82081 109.674 3.64901C107.339 1.29514 104.228 0 100.934 0C97.6301 0 94.53 1.29514 92.1947 3.64901C89.8594 6.00289 88.5744 9.12767 88.5744 12.458C88.5744 15.7884 89.8594 18.9132 92.1947 21.2671C94.53 23.6209 97.6301 24.9161 100.934 24.9161C104.238 24.9161 107.339 23.6209 109.674 21.2671C112.009 18.9132 113.294 15.7884 113.294 12.458C113.294 10.7929 112.968 9.17907 112.356 7.68863ZM100.934 22.4389C95.4784 22.4389 91.0423 17.9675 91.0423 12.4683C91.0423 6.9691 95.4784 2.49778 100.934 2.49778C106.39 2.49778 110.826 6.9691 110.826 12.4683C110.826 17.9573 106.39 22.4389 100.934 22.4389Z" fill="url(#paint1_linear)"/>
<path d="M13.0514 12.4572C13.0514 12.7039 13.031 12.9402 12.98 13.1766C12.8373 13.8754 12.4906 14.5022 12.0115 14.9852C11.3692 15.6327 10.4822 16.0334 9.4932 16.0334C7.82116 16.0334 6.42439 14.8722 6.04716 13.3102C5.97579 13.0327 5.94521 12.745 5.94521 12.447C5.94521 11.4604 6.34283 10.5664 6.98514 9.9087C7.62745 9.26129 8.51445 8.86051 9.4932 8.86051C10.472 8.86051 11.359 9.26129 12.0115 9.9087C12.6538 10.5767 13.0514 11.4707 13.0514 12.4572Z" fill="url(#paint2_linear)"/>
<path fill-rule="evenodd" clip-rule="evenodd" d="M18.3364 51.2404C13.9003 51.2404 10.0659 48.2082 9.00529 43.8807C8.82173 43.1304 8.72995 42.3492 8.72995 41.5577C8.72995 38.9674 9.72934 36.5416 11.5446 34.712C13.3598 32.8823 15.7665 31.875 18.3364 31.875C20.9062 31.875 23.3129 32.8823 25.1282 34.712C26.9434 36.5416 27.9428 38.9777 27.9428 41.5577C27.9428 42.2156 27.8816 42.8631 27.749 43.5004C27.3717 45.3609 26.4641 47.0569 25.1282 48.4035C23.3129 50.2331 20.896 51.2404 18.3364 51.2404ZM18.3364 34.64C16.5007 34.64 14.7875 35.3595 13.4924 36.6649C12.1972 37.9704 11.4834 39.7075 11.4834 41.5474C11.4834 42.1128 11.5548 42.6678 11.6873 43.2023C12.442 46.2963 15.175 48.4549 18.3466 48.4549C20.172 48.4549 21.8954 47.7353 23.1906 46.4299C24.139 45.474 24.7916 44.2611 25.0568 42.9351C25.1486 42.4828 25.1995 42.01 25.1995 41.5474C25.1995 39.6972 24.4857 37.9704 23.1906 36.6649C21.8852 35.3595 20.1618 34.64 18.3364 34.64Z" fill="url(#paint3_linear)"/>
<path fill-rule="evenodd" clip-rule="evenodd" d="M55.4185 51.2404C50.8702 51.2404 46.9135 47.982 46.0058 43.5004C45.8733 42.8631 45.8121 42.2053 45.8121 41.5577C45.8121 38.9674 46.8115 36.5416 48.6267 34.712C50.4419 32.8823 52.8588 31.875 55.4185 31.875C57.9884 31.875 60.3951 32.8823 62.2103 34.712C64.0255 36.5416 65.0249 38.9674 65.0249 41.5577C65.0249 42.2156 64.9637 42.8631 64.8312 43.5004C64.4538 45.3609 63.5462 47.0569 62.2103 48.4035C60.3951 50.2331 57.9884 51.2404 55.4185 51.2404ZM55.4185 34.64C53.5829 34.64 51.8696 35.3595 50.5745 36.6649C49.2794 37.9704 48.5655 39.7075 48.5655 41.5474C48.5655 42.0203 48.6165 42.4828 48.7083 42.9351C49.361 46.1318 52.1858 48.4549 55.4287 48.4549C57.2643 48.4549 58.9776 47.7353 60.2727 46.4299C61.2313 45.4637 61.8738 44.2611 62.1389 42.9351C62.2307 42.4828 62.2817 42.01 62.2817 41.5474C62.2817 39.6972 61.5678 37.9704 60.2727 36.6649C58.9776 35.3595 57.2541 34.64 55.4185 34.64Z" fill="url(#paint4_linear)"/>
<path fill-rule="evenodd" clip-rule="evenodd" d="M11.3408 84.7254H25.2924C26.9344 84.7254 28.2704 83.3788 28.2602 81.7136V79.2671C28.7192 79.4316 29.2291 79.5344 29.8206 79.5344C33.2473 79.5344 34.3896 76.2964 34.3896 75.4227V61.9157C34.3896 58.1021 32.9312 55.8612 31.6971 54.6483C30.096 53.0653 28.1684 52.4999 26.8936 52.4999H9.73963C8.17925 52.4999 6.46589 53.24 5.12988 54.4633C3.93665 55.5631 2.46806 57.6087 2.26409 61.0934V75.7208L2.30488 75.8749C2.62104 77.2421 3.92645 79.5446 6.81265 79.5446C7.39396 79.5446 7.91409 79.4521 8.36283 79.2774V81.7238C8.36283 83.3788 9.69884 84.7254 11.3408 84.7254ZM11.1164 81.7238V61.926H8.35263V75.3713C8.33223 75.5254 8.23025 75.8955 7.99568 76.2142C7.71012 76.6048 7.34297 76.7795 6.80245 76.7795C5.56842 76.7795 5.12988 75.803 5.0075 75.3918V61.227C5.14008 59.2225 5.81319 57.5984 6.98602 56.5191C7.97528 55.6043 9.08693 55.2856 9.73963 55.2856H26.8834C28.4336 55.2856 31.636 56.9097 31.636 61.926V75.2993C31.5544 75.5974 31.1668 76.7692 29.8206 76.7692C29.2801 76.7692 28.9129 76.5945 28.6274 76.2039C28.403 75.8749 28.301 75.5049 28.2704 75.361V61.926H25.5168V81.7238C25.5168 81.8472 25.4148 81.95 25.2924 81.95H11.3408C11.2184 81.95 11.1164 81.8472 11.1164 81.7238Z" fill="url(#paint5_linear)"/>
<path fill-rule="evenodd" clip-rule="evenodd" d="M62.3844 84.7254H48.4328C46.7908 84.7254 45.4548 83.3788 45.4548 81.7238V79.2774C45.0061 79.4521 44.4859 79.5446 43.9046 79.5446C41.0184 79.5446 39.713 77.2421 39.3969 75.8749L39.3561 75.7208V61.0934C39.56 57.6087 41.0286 55.5631 42.2219 54.4633C43.5579 53.24 45.2712 52.4999 46.8316 52.4999H63.9856C65.2604 52.4999 67.1879 53.0653 68.7891 54.6483C70.0231 55.8612 71.4815 58.1021 71.4815 61.9157V75.4227C71.4815 76.2964 70.3393 79.5344 66.9126 79.5344C66.3211 79.5344 65.8111 79.4316 65.3522 79.2671V81.7136C65.3624 83.3788 64.0264 84.7254 62.3844 84.7254ZM48.2084 61.926V81.7238C48.2084 81.8472 48.3104 81.95 48.4328 81.95H62.3844C62.5068 81.95 62.6088 81.8472 62.6088 81.7238V61.926H65.3624V75.361C65.393 75.5049 65.495 75.8749 65.7194 76.2039C66.0049 76.5945 66.3721 76.7692 66.9126 76.7692C68.2588 76.7692 68.6463 75.5974 68.7279 75.2993V61.926C68.7279 56.9097 65.5256 55.2856 63.9754 55.2856H46.8316C46.1789 55.2856 45.0673 55.6043 44.078 56.5191C42.9052 57.5984 42.2321 59.2225 42.0995 61.227V75.3918C42.2219 75.803 42.6604 76.7795 43.8944 76.7795C44.4349 76.7795 44.8021 76.6048 45.0877 76.2142C45.3222 75.8955 45.4242 75.5254 45.4446 75.3713V61.926H48.2084Z" fill="url(#paint6_linear)"/>
<path fill-rule="evenodd" clip-rule="evenodd" d="M85.525 84.7254H99.4766C101.119 84.7254 102.455 83.3788 102.444 81.7136V79.2671C102.903 79.4316 103.413 79.5344 104.005 79.5344C107.432 79.5344 108.574 76.2964 108.574 75.4227V61.9157C108.574 58.1021 107.115 55.8612 105.881 54.6483C104.28 53.0653 102.353 52.4999 101.078 52.4999H83.9238C82.3635 52.4999 80.6501 53.24 79.3141 54.4633C78.1208 55.5631 76.6523 57.6087 76.4483 61.0934V75.7208L76.4891 75.8749C76.8052 77.2421 78.1107 79.5446 80.9968 79.5446C81.5782 79.5446 82.0983 79.4521 82.547 79.2774V81.7238C82.547 83.3788 83.883 84.7254 85.525 84.7254ZM85.3006 81.7238V61.926H82.5368V75.3713C82.5164 75.5254 82.4144 75.8955 82.1799 76.2142C81.8943 76.6048 81.5272 76.7795 80.9866 76.7795C79.7526 76.7795 79.3141 75.803 79.1917 75.3918V61.227C79.3243 59.2225 79.9974 57.5984 81.1702 56.5191C82.1595 55.6043 83.2711 55.2856 83.9238 55.2856H101.068C102.618 55.2856 105.82 56.9097 105.82 61.926V75.2993C105.739 75.5974 105.351 76.7692 104.005 76.7692C103.464 76.7692 103.097 76.5945 102.812 76.2039C102.587 75.8749 102.485 75.5049 102.455 75.361V61.926H99.701V81.7238C99.701 81.8472 99.599 81.95 99.4766 81.95H85.525C85.4026 81.95 85.3006 81.8472 85.3006 81.7238Z" fill="url(#paint7_linear)"/>
<path fill-rule="evenodd" clip-rule="evenodd" d="M92.5108 51.2404C87.9626 51.2404 84.0058 47.982 83.0982 43.5004C82.9656 42.8631 82.9044 42.2053 82.9044 41.5577C82.9044 38.9674 83.9038 36.5416 85.719 34.712C87.5343 32.8823 89.9512 31.875 92.5108 31.875C95.0705 31.875 97.4874 32.8823 99.3026 34.712C101.118 36.5416 102.117 38.9674 102.117 41.5577C102.117 42.2156 102.056 42.8631 101.924 43.5004C101.546 45.3609 100.639 47.0569 99.3026 48.4035C97.4874 50.2331 95.0705 51.2404 92.5108 51.2404ZM92.5108 34.64C90.6752 34.64 88.962 35.3595 87.6668 36.6649C86.3717 37.9704 85.6579 39.7075 85.6579 41.5474C85.6579 42.0203 85.7088 42.4828 85.8006 42.9351C86.4533 46.1318 89.2781 48.4549 92.521 48.4549C94.3465 48.4549 96.0699 47.7353 97.365 46.4299C98.3236 45.4637 98.9661 44.2611 99.2313 42.9351C99.323 42.4828 99.374 42.01 99.374 41.5474C99.374 39.6972 98.6602 37.9704 97.365 36.6649C96.0597 35.3595 94.3363 34.64 92.5108 34.64Z" fill="url(#paint8_linear)"/>
<path fill-rule="evenodd" clip-rule="evenodd" d="M102.944 119.897C103.118 119.969 103.301 120 103.475 120C103.842 120 104.189 119.866 104.454 119.589L119.599 104.324C120.139 103.779 120.139 102.906 119.599 102.361L104.454 87.0961C104.066 86.7055 103.464 86.5822 102.955 86.798C102.445 87.0139 102.108 87.5176 102.108 88.0829V95.3092H13.7477C11.2796 95.3092 4.48737 94.1477 2.68222 88.8539C2.45785 88.2166 1.81534 87.826 1.15244 87.939C0.489531 88.0521 0 88.6277 0 89.3062V98.136C0 103.81 2.38646 107.716 7.088 109.731C10.9533 111.386 15.6752 111.386 18.49 111.386H102.098V118.612C102.098 119.178 102.434 119.681 102.944 119.897ZM2.75361 98.136V93.9627C6.03755 97.1287 10.9737 98.0846 13.7477 98.0846H103.475C104.24 98.0846 104.851 97.4679 104.851 96.6969V91.434L116.672 103.348L104.851 115.261V109.998C104.851 109.227 104.24 108.611 103.475 108.611H18.49C10.8819 108.611 2.75361 107.809 2.75361 98.136Z" fill="url(#paint9_linear)"/>
<path d="M33.957 13.1766C34.008 12.9402 34.0284 12.7039 34.0284 12.4572C34.0284 11.4707 33.6308 10.5767 32.9885 9.9087C32.336 9.26129 31.449 8.86051 30.4702 8.86051C29.4915 8.86051 28.6045 9.26129 27.9622 9.9087C27.3199 10.5664 26.9222 11.4604 26.9222 12.447C26.9222 12.745 26.9528 13.0327 27.0242 13.3102C27.4014 14.8722 28.7982 16.0334 30.4702 16.0334C31.4592 16.0334 32.3462 15.6327 32.9885 14.9852C33.4677 14.5022 33.8143 13.8754 33.957 13.1766Z" fill="url(#paint10_linear)"/>
<path d="M54.9987 12.4575C54.9987 12.7041 54.9783 12.9405 54.9273 13.1768C54.7846 13.8756 54.4379 14.5025 53.9587 14.9855C53.3164 15.6329 52.4294 16.0337 51.4405 16.0337C49.7684 16.0337 48.3717 14.8724 47.9944 13.3104C47.9231 13.033 47.8925 12.7452 47.8925 12.4472C47.8925 11.4607 48.2901 10.5666 48.9324 9.90895C49.5747 9.26154 50.4617 8.86076 51.4405 8.86076C52.4192 8.86076 53.3062 9.26154 53.9587 9.90895C54.6011 10.5769 54.9987 11.471 54.9987 12.4575Z" fill="url(#paint11_linear)"/>
<path d="M75.9059 13.1768C75.9569 12.9405 75.9773 12.7041 75.9773 12.4575C75.9773 11.471 75.5797 10.5769 74.9374 9.90895C74.2849 9.26154 73.3979 8.86076 72.4191 8.86076C71.4403 8.86076 70.5533 9.26154 69.911 9.90895C69.2687 10.5666 68.8711 11.4607 68.8711 12.4472C68.8711 12.7452 68.9017 13.033 68.9731 13.3104C69.3503 14.8724 70.7471 16.0337 72.4191 16.0337C73.4081 16.0337 74.2951 15.6329 74.9374 14.9855C75.4165 14.5025 75.7632 13.8756 75.9059 13.1768Z" fill="url(#paint12_linear)"/>
<defs>
<linearGradient id="paint0_linear" x1="102.604" y1="-0.248424" x2="102.604" y2="119.685" gradientUnits="userSpaceOnUse">
<stop stop-color="#F0AB52"/>
<stop offset="1" stop-color="#DC7539"/>
</linearGradient>
<linearGradient id="paint1_linear" x1="102.604" y1="-0.248424" x2="102.604" y2="119.685" gradientUnits="userSpaceOnUse">
<stop stop-color="#F0AB52"/>
<stop offset="1" stop-color="#DC7539"/>
</linearGradient>
<linearGradient id="paint2_linear" x1="102.604" y1="-0.248424" x2="102.604" y2="119.685" gradientUnits="userSpaceOnUse">
<stop stop-color="#F0AB52"/>
<stop offset="1" stop-color="#DC7539"/>
</linearGradient>
<linearGradient id="paint3_linear" x1="102.604" y1="-0.248424" x2="102.604" y2="119.685" gradientUnits="userSpaceOnUse">
<stop stop-color="#F0AB52"/>
<stop offset="1" stop-color="#DC7539"/>
</linearGradient>
<linearGradient id="paint4_linear" x1="102.604" y1="-0.248424" x2="102.604" y2="119.685" gradientUnits="userSpaceOnUse">
<stop stop-color="#F0AB52"/>
<stop offset="1" stop-color="#DC7539"/>
</linearGradient>
<linearGradient id="paint5_linear" x1="102.604" y1="-0.248424" x2="102.604" y2="119.685" gradientUnits="userSpaceOnUse">
<stop stop-color="#F0AB52"/>
<stop offset="1" stop-color="#DC7539"/>
</linearGradient>
<linearGradient id="paint6_linear" x1="102.604" y1="-0.248424" x2="102.604" y2="119.685" gradientUnits="userSpaceOnUse">
<stop stop-color="#F0AB52"/>
<stop offset="1" stop-color="#DC7539"/>
</linearGradient>
<linearGradient id="paint7_linear" x1="102.604" y1="-0.248424" x2="102.604" y2="119.685" gradientUnits="userSpaceOnUse">
<stop stop-color="#F0AB52"/>
<stop offset="1" stop-color="#DC7539"/>
</linearGradient>
<linearGradient id="paint8_linear" x1="102.604" y1="-0.248424" x2="102.604" y2="119.685" gradientUnits="userSpaceOnUse">
<stop stop-color="#F0AB52"/>
<stop offset="1" stop-color="#DC7539"/>
</linearGradient>
<linearGradient id="paint9_linear" x1="102.604" y1="-0.248424" x2="102.604" y2="119.685" gradientUnits="userSpaceOnUse">
<stop stop-color="#F0AB52"/>
<stop offset="1" stop-color="#DC7539"/>
</linearGradient>
<linearGradient id="paint10_linear" x1="102.604" y1="-0.248424" x2="102.604" y2="119.685" gradientUnits="userSpaceOnUse">
<stop stop-color="#F0AB52"/>
<stop offset="1" stop-color="#DC7539"/>
</linearGradient>
<linearGradient id="paint11_linear" x1="102.604" y1="-0.248424" x2="102.604" y2="119.685" gradientUnits="userSpaceOnUse">
<stop stop-color="#F0AB52"/>
<stop offset="1" stop-color="#DC7539"/>
</linearGradient>
<linearGradient id="paint12_linear" x1="102.604" y1="-0.248424" x2="102.604" y2="119.685" gradientUnits="userSpaceOnUse">
<stop stop-color="#F0AB52"/>
<stop offset="1" stop-color="#DC7539"/>
</linearGradient>
</defs>
</svg>
